<?xml version="1.0" encoding="iso-8859-1"?>
<!-- Uploaded to: SVG Repo, www.svgrepo.com, Generator: SVG Repo Mixer Tools -->
<svg height="800px" width="800px" version="1.1" id="Layer_1" xmlns="http://www.w3.org/2000/svg" xmlns:xlink="http://www.w3.org/1999/xlink" 
	 viewBox="0 0 512.001 512.001" xml:space="preserve">
<g>
	<path style="fill:#6AC8B7;" d="M510.567,251.266l-34.133-51.2c-2.076-3.115-6.155-4.535-9.717-3.388
		c-3.46,1.115-5.916,4.486-5.916,8.122v17.067h-42.667c-4.713,0-8.533,3.821-8.533,8.533v51.2c0,4.713,3.821,8.533,8.533,8.533
		h42.667V307.2c0,3.692,2.527,7.103,6.064,8.165c3.532,1.06,7.521-0.361,9.569-3.433l34.133-51.2
		C512.479,257.867,512.479,254.134,510.567,251.266z"/>
	<path style="fill:#6AC8B7;" d="M93.867,221.867H51.201V204.8c0-3.663-2.43-6.998-5.916-8.122c-3.59-1.156-7.625,0.249-9.717,3.388
		l-34.133,51.2c-1.911,2.867-1.911,6.601,0,9.467l34.133,51.2c2.155,3.233,6.35,4.61,10.004,3.29
		c3.341-1.207,5.629-4.469,5.629-8.022v-17.067h42.667c4.713,0,8.533-3.821,8.533-8.533v-51.2
		C102.401,225.688,98.58,221.867,93.867,221.867z"/>
	<path style="fill:#6AC8B7;" d="M307.201,460.8h-17.067v-42.667c0-4.713-3.821-8.533-8.533-8.533h-51.2
		c-4.713,0-8.533,3.821-8.533,8.533V460.8h-17.067c-3.76,0-7.077,2.462-8.167,6.061c-1.09,3.599,0.305,7.488,3.434,9.573
		l51.2,34.133c1.433,0.956,3.084,1.434,4.734,1.434c1.65,0,3.3-0.478,4.733-1.434l51.2-34.133c3.13-2.085,4.524-5.974,3.434-9.573
		C314.277,463.262,310.961,460.8,307.201,460.8z"/>
	<path style="fill:#6AC8B7;" d="M311.934,35.566l-51.2-34.133c-2.866-1.91-6.601-1.91-9.467,0l-51.2,34.133
		c-3.14,2.093-4.544,6.127-3.388,9.717c1.124,3.487,4.458,5.917,8.122,5.917h17.067v42.667c0,4.713,3.821,8.533,8.533,8.533h51.2
		c4.713,0,8.533-3.821,8.533-8.533V51.2h17.067c3.663,0,6.997-2.43,8.121-5.916C316.479,41.693,315.075,37.66,311.934,35.566z"/>
</g>
<path style="fill:#FDDD85;" d="M384.001,128h-256c-4.713,0-8.533,3.821-8.533,8.533v238.933c0,4.713,3.821,8.533,8.533,8.533h256
	c4.713,0,8.533-3.821,8.533-8.533V136.534C392.534,131.82,388.713,128,384.001,128z"/>
<path style="fill:#FDD042;" d="M145.067,375.467V136.534c0-4.713,3.821-8.533,8.533-8.533h-25.6c-4.713,0-8.533,3.821-8.533,8.533
	v238.933c0,4.713,3.821,8.533,8.533,8.533h25.6C148.887,384,145.067,380.179,145.067,375.467z"/>
<path style="fill:#F2C127;" d="M290.134,128h-68.267v85.081c0,3.252,1.692,6.316,4.607,7.827c2.733,1.417,6.098,1.234,8.66-0.475
	l20.866-13.911l20.867,13.911c2.817,1.878,6.604,1.899,9.429,0.025c2.465-1.635,3.838-4.548,3.838-7.472V128H290.134z"/>
<path style="fill:#E1A527;" d="M238.934,213.081V128h-17.067v85.081c0,3.252,1.692,6.316,4.607,7.827
	c2.733,1.417,6.098,1.234,8.66-0.475l4.805-3.203C239.295,215.965,238.934,214.546,238.934,213.081z"/>
<path style="fill:#EBEBEC;" d="M324.267,238.934H187.734c-4.713,0-8.533,3.821-8.533,8.533v17.067c0,4.713,3.821,8.533,8.533,8.533
	h136.533c4.713,0,8.533-3.821,8.533-8.533v-17.067C332.801,242.753,328.98,238.934,324.267,238.934z"/>
<g>
	<path style="fill:#606268;" d="M324.267,187.734c-4.713,0-8.533-3.821-8.533-8.533v-17.067c0-4.713,3.821-8.533,8.533-8.533
		c4.713,0,8.533,3.821,8.533,8.533V179.2C332.801,183.913,328.98,187.734,324.267,187.734z"/>
	<path style="fill:#606268;" d="M349.867,187.734c-4.713,0-8.533-3.821-8.533-8.533v-17.067c0-4.713,3.821-8.533,8.533-8.533
		c4.713,0,8.533,3.821,8.533,8.533V179.2C358.401,183.913,354.58,187.734,349.867,187.734z"/>
	<path style="fill:#606268;" d="M187.734,187.734c-4.713,0-8.533-3.821-8.533-8.533v-17.067c0-4.713,3.821-8.533,8.533-8.533
		c4.713,0,8.533,3.821,8.533,8.533V179.2C196.267,183.913,192.447,187.734,187.734,187.734z"/>
	<path style="fill:#606268;" d="M162.134,187.734c-4.713,0-8.533-3.821-8.533-8.533v-17.067c0-4.713,3.821-8.533,8.533-8.533
		c4.713,0,8.533,3.821,8.533,8.533V179.2C170.667,183.913,166.847,187.734,162.134,187.734z"/>
</g>
<g>
	<path style="fill:#E8674F;" d="M324.267,290.134c-23.526,0-42.667,19.14-42.667,42.667c0,4.713,3.821,8.533,8.533,8.533h25.6V358.4
		c0,4.713,3.821,8.533,8.533,8.533h17.067c4.713,0,8.533-3.821,8.533-8.533c0-4.713-3.821-8.533-8.533-8.533h-8.533v-8.533h25.6
		c4.713,0,8.533-3.821,8.533-8.533C366.934,309.274,347.794,290.134,324.267,290.134z M300.13,324.267
		c3.522-9.934,13.012-17.067,24.138-17.067c11.125,0,20.615,7.134,24.138,17.067H300.13z"/>
	<path style="fill:#E8674F;" d="M187.734,366.934c-4.713,0-8.533-3.821-8.533-8.533v-17.067c0-4.713,3.821-8.533,8.533-8.533
		c4.713,0,8.533,3.821,8.533,8.533V358.4C196.267,363.113,192.447,366.934,187.734,366.934z"/>
	<path style="fill:#E8674F;" d="M213.334,324.267v-25.6c0-4.713-3.821-8.533-8.533-8.533h-34.133c-4.713,0-8.533,3.821-8.533,8.533
		v25.6c0,14.115,11.484,25.6,25.6,25.6C201.85,349.867,213.334,338.382,213.334,324.267z M196.267,324.267
		c0,4.705-3.828,8.533-8.533,8.533s-8.533-3.828-8.533-8.533V307.2h17.067V324.267z"/>
	<path style="fill:#E8674F;" d="M162.134,358.4c0,4.713,3.821,8.533,8.533,8.533h34.133c4.713,0,8.533-3.821,8.533-8.533
		c0-4.713-3.821-8.533-8.533-8.533h-17.067h-17.067C165.954,349.867,162.134,353.688,162.134,358.4z"/>
</g>
</svg>