<?xml version="1.0" encoding="iso-8859-1"?>
<!-- Uploaded to: SVG Repo, www.svgrepo.com, Generator: SVG Repo Mixer Tools -->
<!DOCTYPE svg PUBLIC "-//W3C//DTD SVG 1.1//EN" "http://www.w3.org/Graphics/SVG/1.1/DTD/svg11.dtd">
<svg fill="#000000" height="800px" width="800px" version="1.1" id="Capa_1" xmlns="http://www.w3.org/2000/svg" xmlns:xlink="http://www.w3.org/1999/xlink" 
	 viewBox="0 0 332.532 332.532" xml:space="preserve">
<g>
	<path d="M306.763,0c-3.224,0-3.224,5,0,5S309.988,0,306.763,0z"/>
	<path d="M292.676,84.661H30.851c-4.142,0-7.5,3.357-7.5,7.5c0,48.038,32.361,90.294,78.697,102.758
		c14.574,3.921,26.192,14.674,31.079,28.766l9.492,27.373c1.046,3.019,3.891,5.043,7.086,5.043h24.118
		c3.195,0,6.04-2.024,7.086-5.043l9.492-27.373c4.887-14.092,16.504-24.845,31.079-28.766c30.423-8.184,55.509-29.303,68.826-57.943
		c1.747-3.756,0.117-8.217-3.639-9.963c-3.757-1.746-8.217-0.117-9.963,3.639c-11.443,24.608-32.992,42.754-59.121,49.783
		c-19.378,5.212-34.838,19.543-41.354,38.336l-7.743,22.33h-13.443l-7.743-22.33c-6.516-18.793-21.976-33.124-41.354-38.336
		c-37.367-10.052-64.153-42.669-67.287-80.773h254.019c4.142,0,7.5-3.357,7.5-7.5S296.818,84.661,292.676,84.661z"/>
	<path d="M161.763,66.468c16.542,0,30-13.458,30-30s-13.458-30-30-30s-30,13.458-30,30S145.221,66.468,161.763,66.468z
		 M161.763,21.468c8.271,0,15,6.729,15,15s-6.729,15-15,15s-15-6.729-15-15S153.492,21.468,161.763,21.468z"/>
	<path d="M234.745,66.468c16.542,0,30-13.458,30-30s-13.458-30-30-30s-30,13.458-30,30S218.203,66.468,234.745,66.468z
		 M234.745,21.468c8.271,0,15,6.729,15,15s-6.729,15-15,15s-15-6.729-15-15S226.474,21.468,234.745,21.468z"/>
	<path d="M88.781,66.468c16.542,0,30-13.458,30-30s-13.458-30-30-30s-30,13.458-30,30S72.239,66.468,88.781,66.468z M88.781,21.468
		c8.271,0,15,6.729,15,15s-6.729,15-15,15s-15-6.729-15-15S80.51,21.468,88.781,21.468z"/>
	<path d="M161.763,272.532c-16.542,0-30,13.458-30,30s13.458,30,30,30s30-13.458,30-30S178.305,272.532,161.763,272.532z
		 M161.763,317.532c-8.271,0-15-6.729-15-15s6.729-15,15-15s15,6.729,15,15S170.034,317.532,161.763,317.532z"/>
</g>
</svg>