<?xml version="1.0" encoding="iso-8859-1"?>
<!-- Uploaded to: SVG Repo, www.svgrepo.com, Generator: SVG Repo Mixer Tools -->
<!DOCTYPE svg PUBLIC "-//W3C//DTD SVG 1.1//EN" "http://www.w3.org/Graphics/SVG/1.1/DTD/svg11.dtd">
<svg fill="#000000" height="800px" width="800px" version="1.1" id="Capa_1" xmlns="http://www.w3.org/2000/svg" xmlns:xlink="http://www.w3.org/1999/xlink" 
	 viewBox="0 0 390 390" xml:space="preserve">
<g>
	<g>
		<path d="M375,390H15c-8.284,0-15-6.716-15-15V15C0,6.716,6.716,0,15,0h360c8.283,0,15,6.716,15,15v360
			C390,383.284,383.283,390,375,390z M30,360h330V30H30V360z"/>
	</g>
	<g>
		<g>
			<path d="M115,294.746c-8.284,0-15-6.716-15-15V110.254c0-8.284,6.716-15,15-15s15,6.716,15,15v169.492
				C130,288.03,123.284,294.746,115,294.746z"/>
		</g>
		<g>
			<path d="M195,294.746c-8.284,0-15-6.716-15-15V110.254c0-8.284,6.716-15,15-15s15,6.716,15,15v169.492
				C210,288.03,203.284,294.746,195,294.746z"/>
		</g>
		<g>
			<path d="M275,294.746c-8.284,0-15-6.716-15-15V110.254c0-8.284,6.716-15,15-15s15,6.716,15,15v169.492
				C290,288.03,283.284,294.746,275,294.746z"/>
		</g>
	</g>
</g>
</svg>