<?xml version="1.0" encoding="UTF-8"?>
<!DOCTYPE svg PUBLIC "-//W3C//DTD SVG 1.1//EN" "http://www.w3.org/Graphics/SVG/1.1/DTD/svg11.dtd">
<!-- Creator: CorelDRAW -->
<svg xmlns="http://www.w3.org/2000/svg" xml:space="preserve" width="2048px" height="2048px" style="shape-rendering:geometricPrecision; text-rendering:geometricPrecision; image-rendering:optimizeQuality; fill-rule:evenodd; clip-rule:evenodd"
viewBox="0 0 2048 2048"
 xmlns:xlink="http://www.w3.org/1999/xlink">
 <defs>
  <style type="text/css">
   <![CDATA[
    .fil15 {fill:none}
    .fil8 {fill:#2F2F2F}
    .fil10 {fill:#414141}
    .fil2 {fill:#444444}
    .fil1 {fill:#585959}
    .fil11 {fill:#616161}
    .fil6 {fill:#656666}
    .fil0 {fill:#6B6B6B}
    .fil4 {fill:#8E8E8F}
    .fil14 {fill:#BEBEBE}
    .fil5 {fill:#C4C4C4}
    .fil12 {fill:#414141;fill-rule:nonzero}
    .fil9 {fill:#565656;fill-rule:nonzero}
    .fil13 {fill:#757575;fill-rule:nonzero}
    .fil3 {fill:#787878;fill-rule:nonzero}
    .fil7 {fill:#AEAEAF;fill-rule:nonzero}
   ]]>
  </style>
 </defs>
 <g id="Layer_x0020_1">
  <metadata id="CorelCorpID_0Corel-Layer"/>
  <g id="_420252272">
   <path id="_420259880" class="fil0" d="M464 839.173l1120 0c57.2315,0 109.241,23.3918 146.926,61.0749 37.6831,37.6843 61.0749,89.6942 61.0749,146.927 0,57.2315 -23.3918,109.241 -61.0749,146.926 -37.6843,37.6831 -89.6942,61.0749 -146.926,61.0749l-1120 0c-57.2315,0 -109.241,-23.3918 -146.926,-61.0749 -37.6831,-37.6843 -61.0749,-89.6942 -61.0749,-146.927 0,-57.2315 23.3918,-109.241 61.0749,-146.926 37.6843,-37.6831 89.6942,-61.0749 146.926,-61.0749z"/>
   <path id="_420260264" class="fil1" d="M557.645 946.152l932.71 0c47.6611,0 90.9745,11.361 122.356,29.6622 31.3819,18.3024 50.8619,43.5626 50.8619,71.3587 0,27.7961 -19.4799,53.0563 -50.8619,71.3587 -31.3819,18.3024 -74.6953,29.6622 -122.356,29.6622l-932.71 0c-47.6599,0 -90.9733,-11.3599 -122.355,-29.6622 -31.3819,-18.3024 -50.8619,-43.5626 -50.8619,-71.3587 0,-27.7961 19.4799,-53.0563 50.8619,-71.3587 31.3819,-18.3012 74.6953,-29.6622 122.355,-29.6622z"/>
   <path id="_420260408" class="fil2" d="M1631.81 999.366c-12.2303,-12.2303 -29.1343,-19.7977 -47.8075,-19.7977 -18.6732,0 -35.5772,7.56733 -47.8075,19.7977 -12.2303,12.2303 -19.7977,29.1343 -19.7977,47.8075 0,18.6732 7.56733,35.5772 19.7977,47.8075 12.2303,12.2303 29.1343,19.7977 47.8075,19.7977 18.6732,0 35.5772,-7.56733 47.8075,-19.7977 12.2303,-12.2303 19.7977,-29.1343 19.7977,-47.8075 0,-18.6732 -7.56733,-35.5772 -19.7977,-47.8075zm-47.8075 -109.939c43.5567,0 82.9938,17.6587 111.54,46.2071 28.5484,28.5461 46.2071,67.9855 46.2071,111.54 0,43.5567 -17.6587,82.9938 -46.2071,111.54 -28.5461,28.5484 -67.9831,46.2071 -111.54,46.2071 -43.5544,0 -82.9938,-17.6587 -111.54,-46.2071 -28.5484,-28.5461 -46.2071,-67.9831 -46.2071,-111.54 0,-43.5544 17.6587,-82.9938 46.2071,-111.54 28.5461,-28.5484 67.9855,-46.2071 111.54,-46.2071z"/>
   <polygon id="_420260480" class="fil3" points="672.002,1249.67 672.002,1623.05 608,1623.05 608,1249.67 "/>
   <polygon id="_420260312" class="fil3" points="1472,1249.67 1472,1623.05 1408,1623.05 1408,1249.67 "/>
   <g>
    <g>
     <path id="_420260432" class="fil4" d="M553.112 409.33c206.603,0 202.142,0 408.7,0 11.576,0 20.9599,7.80355 20.9599,17.4272l0 347.575c0,9.62481 -9.38387,17.4272 -20.9599,17.4272l-408.7 0c-11.576,0 -20.9599,-7.80237 -20.9599,-17.4272l0 -347.575c0,-9.62363 9.38387,-17.4272 20.9599,-17.4272z"/>
     <polygon id="_420259160" class="fil5" points="812.479,409.33 702.445,409.33 702.445,508.947 702.445,509.637 711.584,521.034 720.76,509.591 729.936,521.034 739.11,509.591 748.286,521.034 757.462,509.591 766.638,521.034 775.812,509.591 784.987,521.034 794.163,509.591 803.339,521.034 812.479,509.635 812.479,509.591 "/>
     <g>
      <polygon id="_420259280" class="fil6" points="844.534,687.08 844.534,627.214 870.418,627.214 818.647,567.349 766.88,627.214 792.764,627.214 792.764,687.08 "/>
      <polygon id="_420259520" class="fil6" points="721.786,687.08 721.786,627.214 747.67,627.214 695.903,567.349 644.134,627.214 670.016,627.214 670.016,687.08 "/>
      <polygon id="_420259664" class="fil6" points="643.789,707.515 871.136,707.515 871.136,727.01 643.789,727.01 "/>
     </g>
    </g>
    <g>
     <path id="_420258848" class="fil4" d="M1086.19 409.33c206.603,0 202.142,0 408.7,0 11.576,0 20.9599,7.80355 20.9599,17.4272l0 347.575c0,9.62481 -9.38387,17.4272 -20.9599,17.4272l-408.7 0c-11.576,0 -20.9599,-7.80237 -20.9599,-17.4272l0 -347.575c0,-9.62363 9.38387,-17.4272 20.9599,-17.4272z"/>
     <polygon id="_420258824" class="fil5" points="1345.56,409.33 1235.52,409.33 1235.52,508.947 1235.52,509.637 1244.66,521.034 1253.84,509.591 1263.01,521.034 1272.19,509.591 1281.36,521.034 1290.54,509.591 1299.71,521.034 1308.89,509.591 1318.06,521.034 1327.24,509.591 1336.42,521.034 1345.56,509.635 1345.56,509.591 "/>
     <g>
      <polygon id="_420258584" class="fil6" points="1377.61,687.08 1377.61,627.214 1403.49,627.214 1351.72,567.349 1299.96,627.214 1325.84,627.214 1325.84,687.08 "/>
      <polygon id="_420258968" class="fil6" points="1254.86,687.08 1254.86,627.214 1280.75,627.214 1228.98,567.349 1177.21,627.214 1203.09,627.214 1203.09,687.08 "/>
      <polygon id="_420258656" class="fil6" points="1176.87,707.515 1404.21,707.515 1404.21,727.01 1176.87,727.01 "/>
     </g>
    </g>
   </g>
   <path id="_420258032" class="fil7" d="M463.179 824.173l1121.64 0c61.115,0 116.665,24.9921 156.927,65.2536 40.2614,40.2626 65.2536,95.8123 65.2536,156.927 0,61.115 -24.9921,116.665 -65.2536,156.927 -40.2626,40.2614 -95.8123,65.2536 -156.927,65.2536l-1121.64 0c-61.115,0 -116.665,-24.9921 -156.927,-65.2536 -40.2614,-40.2626 -65.2536,-95.8123 -65.2536,-156.927 0,-61.115 24.9921,-116.665 65.2536,-156.927 40.2626,-40.2614 95.8123,-65.2536 156.927,-65.2536zm1121.64 30l-1121.64 0c-52.8343,0 -100.878,21.626 -135.717,56.4638 -34.8378,34.839 -56.4638,82.8827 -56.4638,135.717 0,52.8343 21.626,100.878 56.4638,135.717 34.839,34.8378 82.8827,56.4638 135.717,56.4638l1121.64 0c52.8343,0 100.878,-21.626 135.717,-56.4638 34.8378,-34.839 56.4638,-82.8827 56.4638,-135.717 0,-52.8343 -21.626,-100.878 -56.4638,-135.717 -34.839,-34.8378 -82.8827,-56.4638 -135.717,-56.4638z"/>
   <path id="_420257648" class="fil7" d="M1584.82 864.173c1.75158,0 3.42048,-0.455906 4.87678,-1.26969 1.4374,0.908268 3.07559,1.4315 4.79292,1.5248 12.4276,0.644882 24.7606,2.60906 36.789,5.79095l0.549213 0.146457c9.72993,2.57008 16.7575,-9.05434 9.92599,-16.4894 -1.31221,-1.38662 -2.82992,-2.28662 -4.663,-2.80512 -13.5024,-3.64961 -27.554,-5.8878 -41.5217,-6.613 -2.06575,-0.112205 -3.90473,0.360236 -5.44489,1.23071 -1.51772,-0.954331 -3.32481,-1.51654 -5.30433,-1.51654l-39.9992 0c-4.33819,0 -8.16851,2.78977 -9.51379,6.90945 -2.06929,6.46654 2.71063,13.0913 9.51379,13.0913l39.9992 0zm109.649 12.541c-8.04568,-5.24764 -18.1925,2.89252 -14.8181,11.8902 0.754725,2.01378 2.10709,3.69685 3.90945,4.87205 10.6547,6.88465 20.4425,14.8949 29.4697,23.7957 7.04292,6.86339 18.6177,0.724016 16.8721,-8.97048 -0.403937,-2.01969 -1.31221,-3.75237 -2.77205,-5.21221 -9.87875,-9.81851 -20.9599,-18.815 -32.661,-26.3752zm69.9107 77.0008c-4.07481,-7.98662 -16.0169,-6.82441 -18.4807,1.8 -0.757087,2.42481 -0.427559,5.14961 0.719292,7.39607 5.86418,11.3374 10.428,22.9217 13.8579,35.217 0.935434,3.30473 3.32126,5.77441 6.57048,6.85749 7.67008,2.34803 14.752,-4.43859 12.7075,-12.1795 -3.80197,-13.637 -8.87009,-26.5169 -15.3744,-39.091zm22.4232 101.571c0.361418,-9.92481 -12.2492,-14.2913 -18.0969,-6.29882 -1.17284,1.64173 -1.77284,3.39922 -1.88268,5.413 -0.43937,12.4122 -2.49921,25.3701 -5.60079,37.3902 -0.940158,3.55985 0.162992,7.30867 2.8311,9.83268 5.59134,5.14961 14.5736,2.58071 16.513,-4.75867 1.51772,-5.66575 2.71536,-11.5524 3.69213,-17.3362 1.30158,-7.94764 2.25945,-16.1917 2.5441,-24.2421zm-31.3642 99.195c5.41536,-8.58898 -3.87166,-18.841 -12.9543,-14.2996 -1.63937,0.837402 -2.89725,1.99606 -3.90237,3.5374 -6.66733,10.578 -14.8016,20.7343 -23.5335,29.6776 -6.83977,7.02048 -0.516142,18.7205 9.17717,16.7823 1.93583,-0.387402 3.75118,-1.39134 5.12835,-2.80512 9.69804,-9.96851 18.665,-21.1205 26.0847,-32.8925zm-76.376 70.5875c8.23465,-4.46103 6.52914,-16.611 -2.60788,-18.6213 -2.36811,-0.473622 -4.60158,-0.173622 -6.74882,0.944883 -11.152,5.93977 -22.9536,10.6937 -35.0977,14.1768 -8.66339,2.45197 -9.8504,14.4 -1.82953,18.4996 2.22992,1.18937 4.92166,1.41142 7.34056,0.726379 13.5579,-3.94252 26.4756,-9.08623 38.9433,-15.7264zm-101.013 23.4662c4.33819,0 8.16851,-2.78977 9.51379,-6.90945 2.06929,-6.46654 -2.71063,-13.0913 -9.51379,-13.0913l-39.9992 0c-4.33819,0 -8.16851,2.78977 -9.51379,6.90945 -2.06929,6.46654 2.71063,13.0913 9.51379,13.0913l39.9992 0zm-99.9981 0c4.33819,0 8.16851,-2.78977 9.51379,-6.90945 2.06929,-6.46654 -2.71063,-13.0913 -9.51379,-13.0913l-39.9992 0c-4.33819,0 -8.16851,2.78977 -9.51379,6.90945 -2.06929,6.46654 2.71063,13.0913 9.51379,13.0913l39.9992 0zm-99.9981 0c4.33819,0 8.16851,-2.78977 9.51379,-6.90945 2.06929,-6.46654 -2.71063,-13.0913 -9.51379,-13.0913l-39.9992 0c-4.33819,0 -8.16851,2.78977 -9.51379,6.90945 -2.06929,6.46654 2.71063,13.0913 9.51379,13.0913l39.9992 0zm-99.9981 0c4.33819,0 8.16851,-2.78977 9.51379,-6.90945 2.06929,-6.46654 -2.71063,-13.0913 -9.51379,-13.0913l-39.9992 0c-4.33819,0 -8.16851,2.78977 -9.51379,6.90945 -2.06929,6.46654 2.71063,13.0913 9.51379,13.0913l39.9992 0zm-99.9981 0c4.33819,0 8.16851,-2.78977 9.51379,-6.90945 2.06929,-6.46654 -2.71063,-13.0913 -9.51379,-13.0913l-39.9992 0c-4.33819,0 -8.16851,2.78977 -9.51379,6.90945 -2.06929,6.46654 2.71063,13.0913 9.51379,13.0913l39.9992 0zm-99.9981 0c4.33819,0 8.16851,-2.78977 9.51379,-6.90945 2.06929,-6.46654 -2.71063,-13.0913 -9.51379,-13.0913l-39.9992 0c-4.33819,0 -8.16851,2.78977 -9.51379,6.90945 -2.06929,6.46654 2.71063,13.0913 9.51379,13.0913l39.9992 0zm-99.9981 0c4.33819,0 8.16851,-2.78977 9.51379,-6.90945 2.06929,-6.46654 -2.71063,-13.0913 -9.51379,-13.0913l-39.9992 0c-4.33819,0 -8.16851,2.78977 -9.51379,6.90945 -2.06929,6.46654 2.71063,13.0913 9.51379,13.0913l39.9992 0zm-99.9981 0c4.33819,0 8.16851,-2.78977 9.51379,-6.90945 2.06929,-6.46654 -2.71063,-13.0913 -9.51379,-13.0913l-39.9992 0c-4.33819,0 -8.16851,2.78977 -9.51379,6.90945 -2.06929,6.46654 2.71063,13.0913 9.51379,13.0913l39.9992 0zm-99.9981 0c4.33819,0 8.16851,-2.78977 9.51379,-6.90945 2.06929,-6.46654 -2.71063,-13.0913 -9.51379,-13.0913l-39.9992 0c-4.33819,0 -8.16851,2.78977 -9.51379,6.90945 -2.06929,6.46654 2.71063,13.0913 9.51379,13.0913l39.9992 0zm-99.9981 0c4.33819,0 8.16851,-2.78977 9.51379,-6.90945 2.06929,-6.46654 -2.71063,-13.0913 -9.51379,-13.0913l-39.9992 0c-4.33819,0 -8.16851,2.78977 -9.51379,6.90945 -2.06929,6.46654 2.71063,13.0913 9.51379,13.0913l39.9992 0zm-99.9981 0c4.33819,0 8.16851,-2.78977 9.51379,-6.90945 2.06929,-6.46654 -2.71063,-13.0913 -9.51379,-13.0913l-39.9992 0c-4.33819,0 -8.16851,2.78977 -9.51379,6.90945 -2.06929,6.46654 2.71063,13.0913 9.51379,13.0913l39.9992 0zm-99.9981 0c4.33819,0 8.16851,-2.78977 9.51379,-6.90945 2.06929,-6.46654 -2.71063,-13.0913 -9.51379,-13.0913l-14.8925 0 -0.590552 0 -0.579922 -0.00236221 -0.589371 -0.00590552 -0.589371 -0.00590552 -0.577559 -0.00826772 -0.589371 -0.0106299 -0.585827 -0.011811 -0.578741 -0.0141732 -0.585827 -0.0165354 -0.584646 -0.0165354 -0.576378 -0.0200788 -0.584646 -0.0212599 -0.584646 -0.0236221 -0.583465 -0.0248032 -0.574016 -0.0271654 -0.582284 -0.0283465 -0.583465 -0.0307087 -0.571654 -0.0318898 -0.581103 -0.0354331 -0.581103 -0.0354331 -0.579922 -0.0389764 -0.578741 -0.0389764 -0.570473 -0.0413386 -0.577559 -0.0437008 -0.578741 -0.0448819 -0.56693 -0.046063 -0.576378 -0.0496063 -0.577559 -0.0507874 -0.576378 -0.0519685 -0.574016 -0.0543308 -0.575197 -0.056693 -0.564567 -0.0555119 -0.572835 -0.0614174 -0.572835 -0.0602363 -0.572835 -0.0637796 -0.570473 -0.0637796 -0.563386 -0.0661418 -0.570473 -0.068504 -0.569292 -0.0708662 -0.568111 -0.0720473 -0.570473 -0.0744095 -0.0236221 -0.00354331c-10.0453,-1.30276 -15.4725,11.4047 -7.51418,17.7721 1.42323,1.10315 3.06024,1.81654 4.85197,2.04921l0.0850394 0.0129921 0.627166 0.0814961 0.629528 0.0791339 0.630709 0.0779528 0.63189 0.0755906 0.638977 0.0755906 0.63189 0.0708662 0.63189 0.0708662 0.63189 0.0673229 0.634252 0.0661418 0.64252 0.0649607 0.634252 0.0614174 0.635434 0.0590552 0.635434 0.0590552 0.634252 0.0555119 0.635434 0.0543308 0.647245 0.0531496 0.637796 0.0496063 0.636615 0.0484252 0.648426 0.046063 0.637796 0.0437008 0.638977 0.0413386 0.640158 0.0401575 0.640158 0.0377953 0.649607 0.0366142 0.640158 0.0330709 0.641339 0.0330709 0.651969 0.0295276 0.64252 0.0271654 0.641339 0.0259843 0.643701 0.0236221 0.651969 0.022441 0.643701 0.0188977 0.644882 0.0188977 0.654331 0.0141732 0.644882 0.0141732 0.646063 0.0106299 0.655512 0.0106299 0.646063 0.00590552 0.646063 0.00590552 0.657875 0.00236221 0.647245 0.00236221 14.8925 0zm-101.532 -19.6311c3.47481,1.70197 7.62638,1.15276 10.624,-1.24606 5.69528,-4.69843 4.64764,-13.5413 -1.97362,-16.7847 -11.3882,-5.47205 -22.2614,-12.0803 -32.2819,-19.7823 -7.59095,-5.69292 -18,1.14331 -15.7878,10.3618 0.594095,2.23701 1.76693,4.08898 3.61536,5.50748 11.2417,8.57363 23.061,15.8209 35.804,21.9437zm-79.2568 -67.3453c5.2878,7.67599 17.4496,4.41851 18.1784,-4.88032 0.187795,-2.34567 -0.415748,-4.58741 -1.75158,-6.52678 -7.24607,-10.376 -13.3831,-21.4559 -18.339,-33.1004l-0.00472441 -0.00944883c-1.37008,-3.26103 -4.28504,-5.46496 -7.75985,-6.00945 -7.75276,-1.08543 -13.6417,6.55985 -10.6677,13.7811 5.30906,12.7417 12.4441,25.4315 20.3445,36.7453zm-35.5311 -97.7469c0.881103,9.68623 13.6311,12.5847 18.6177,4.14567 1.02402,-1.80236 1.49646,-3.80197 1.30748,-5.87481l-0.00354331 -0.046063 -0.0496063 -0.576378 -0.046063 -0.56693 -0.0448819 -0.578741 -0.0437008 -0.577559 -0.0413386 -0.570473 -0.0389764 -0.578741 -0.0389764 -0.579922 -0.0354331 -0.581103 -0.0354331 -0.581103 -0.0318898 -0.571654 -0.0307087 -0.583465 -0.0283465 -0.582284 -0.0271654 -0.574016 -0.0248032 -0.583465 -0.0236221 -0.584646 -0.0212599 -0.584646 -0.0200788 -0.576378 -0.0165354 -0.584646 -0.0165354 -0.585827 -0.0141732 -0.578741 -0.011811 -0.585827 -0.0106299 -0.589371 -0.00826772 -0.577559 -0.00590552 -0.589371 -0.00590552 -0.589371 -0.00236221 -0.579922 0 -0.590552 0 -0.590552 0.00236221 -0.579922 0.00590552 -0.589371 0.00590552 -0.589371 0.00826772 -0.577559 0.0106299 -0.589371 0.011811 -0.585827 0.0141732 -0.578741 0.0165354 -0.585827 0.0165354 -0.584646 0.0200788 -0.576378 0.0212599 -0.584646 0.0236221 -0.584646 0.0248032 -0.583465 0.0271654 -0.574016 0.0283465 -0.582284 0.0307087 -0.583465 0.0318898 -0.571654 0.0354331 -0.581103 0.0354331 -0.581103 0.0389764 -0.579922 0.0389764 -0.578741 0.0413386 -0.570473 0.0437008 -0.577559 0.0448819 -0.578741 0.046063 -0.56693 0.0496063 -0.576378 0.0507874 -0.577559 0.0519685 -0.576378 0.0543308 -0.574016 0.056693 -0.575197 0.0555119 -0.564567 0.0614174 -0.572835 0.0602363 -0.572835 0.0637796 -0.572835 0.0637796 -0.570473 0.0661418 -0.563386 0.068504 -0.570473 0.0153543 -0.113386c1.15276,-8.89135 -9.2941,-14.6917 -16.2484,-8.98583 -2.02559,1.71496 -3.25394,3.85985 -3.59646,6.50315l-0.022441 0.174803 -0.0755906 0.63189 -0.0755906 0.638977 -0.0708662 0.63189 -0.0708662 0.63189 -0.0673229 0.63189 -0.0661418 0.634252 -0.0649607 0.64252 -0.0614174 0.634252 -0.0590552 0.635434 -0.0590552 0.635434 -0.0555119 0.634252 -0.0543308 0.635434 -0.0531496 0.647245 -0.0496063 0.637796 -0.0484252 0.636615 -0.046063 0.648426 -0.0437008 0.637796 -0.0413386 0.638977 -0.0401575 0.640158 -0.0377953 0.640158 -0.0366142 0.649607 -0.0330709 0.640158 -0.0330709 0.641339 -0.0295276 0.651969 -0.0271654 0.64252 -0.0259843 0.641339 -0.0236221 0.643701 -0.022441 0.651969 -0.0188977 0.643701 -0.0188977 0.644882 -0.0141732 0.654331 -0.0141732 0.644882 -0.0106299 0.646063 -0.0106299 0.655512 -0.00590552 0.646063 -0.00590552 0.646063 -0.00236221 0.657875 -0.00236221 0.647245 0.00236221 0.647245 0.00236221 0.657875 0.00590552 0.646063 0.00590552 0.646063 0.0106299 0.655512 0.0106299 0.646063 0.0141732 0.644882 0.0141732 0.654331 0.0188977 0.644882 0.0188977 0.643701 0.022441 0.651969 0.0236221 0.643701 0.0259843 0.641339 0.0271654 0.64252 0.0295276 0.651969 0.0330709 0.641339 0.0330709 0.640158 0.0366142 0.649607 0.0377953 0.640158 0.0401575 0.640158 0.0413386 0.638977 0.0437008 0.637796 0.046063 0.648426 0.0484252 0.636615 0.0496063 0.637796 0.0531496 0.647245 0.0543308 0.635434 0.00354331 0.046063zm18.1016 -102.455c-1.6937,3.6815 -1.07835,7.91221 1.6252,10.9347 4.74213,5.29961 13.513,4.01221 16.4882,-2.45433 5.2252,-11.3043 11.9799,-22.5095 19.4835,-32.4473 2.46732,-3.28937 2.7,-7.73623 0.548032,-11.2429 -3.67796,-5.9941 -12.2894,-6.43465 -16.5142,-0.801969 -8.37402,11.2228 -15.7512,23.2937 -21.6307,36.0118zm66.6343 -79.8544c-7.22127,5.13544 -4.68307,16.4362 4.04292,18.0071 2.68819,0.429922 5.28662,-0.0992127 7.52245,-1.68898 10.1469,-7.20591 20.9953,-13.3973 32.3941,-18.3957l0.54567 -0.239764c9.07678,-3.99331 7.53071,-17.2689 -2.30551,-19.0394 -1.91575,-0.307087 -3.84567,-0.102756 -5.6315,0.682678 -0.969686,0.409843 -1.93701,0.853938 -2.89725,1.28858 -11.8476,5.3941 -23.0575,11.8476 -33.6709,19.3854zm97.4611 -36.4146c-8.80512,0.814961 -12.2929,11.8725 -5.51103,17.6102 1.99134,1.72914 4.74331,2.54055 7.35591,2.30315l0.549213 -0.0507874 0.576378 -0.0519685 0.577559 -0.0507874 0.576378 -0.0496063 0.56693 -0.046063 0.578741 -0.0448819 0.577559 -0.0437008 0.570473 -0.0413386 0.578741 -0.0389764 0.579922 -0.0389764 0.581103 -0.0354331 0.581103 -0.0354331 0.571654 -0.0318898 0.583465 -0.0307087 0.582284 -0.0283465 0.574016 -0.0271654 0.583465 -0.0248032 0.584646 -0.0236221 0.584646 -0.0212599 0.576378 -0.0200788 0.584646 -0.0165354 0.585827 -0.0165354 0.578741 -0.0141732 0.585827 -0.011811 0.589371 -0.0106299 0.577559 -0.00826772 0.589371 -0.00590552 0.589371 -0.00590552 0.579922 -0.00236221 0.590552 0 21.6626 0c4.33819,0 8.16851,-2.78977 9.51379,-6.90945 2.06929,-6.46654 -2.71063,-13.0913 -9.51379,-13.0913l-21.6626 0 -0.647245 0.00236221 -0.657875 0.00236221 -0.646063 0.00590552 -0.646063 0.00590552 -0.655512 0.0106299 -0.646063 0.0106299 -0.644882 0.0141732 -0.654331 0.0141732 -0.644882 0.0188977 -0.643701 0.0188977 -0.651969 0.022441 -0.643701 0.0236221 -0.641339 0.0259843 -0.64252 0.0271654 -0.651969 0.0295276 -0.641339 0.0330709 -0.640158 0.0330709 -0.649607 0.0366142 -0.640158 0.0377953 -0.640158 0.0401575 -0.638977 0.0413386 -0.637796 0.0437008 -0.648426 0.046063 -0.636615 0.0484252 -0.637796 0.0496063 -0.647245 0.0531496 -0.635434 0.0543308 -0.634252 0.0555119 -0.635434 0.0590552 -0.549213 0.0507874zm100.892 -0.915355c-4.33819,0 -8.16851,2.78977 -9.51379,6.90945 -2.06929,6.46654 2.71063,13.0913 9.51379,13.0913l39.9992 0c4.33819,0 8.16851,-2.78977 9.51379,-6.90945 2.06929,-6.46654 -2.71063,-13.0913 -9.51379,-13.0913l-39.9992 0zm99.9981 0c-4.33819,0 -8.16851,2.78977 -9.51379,6.90945 -2.06929,6.46654 2.71063,13.0913 9.51379,13.0913l39.9992 0c4.33819,0 8.16851,-2.78977 9.51379,-6.90945 2.06929,-6.46654 -2.71063,-13.0913 -9.51379,-13.0913l-39.9992 0zm99.9981 0c-4.33819,0 -8.16851,2.78977 -9.51379,6.90945 -2.06929,6.46654 2.71063,13.0913 9.51379,13.0913l39.9992 0c4.33819,0 8.16851,-2.78977 9.51379,-6.90945 2.06929,-6.46654 -2.71063,-13.0913 -9.51379,-13.0913l-39.9992 0zm99.9981 0c-4.33819,0 -8.16851,2.78977 -9.51379,6.90945 -2.06929,6.46654 2.71063,13.0913 9.51379,13.0913l39.9992 0c4.33819,0 8.16851,-2.78977 9.51379,-6.90945 2.06929,-6.46654 -2.71063,-13.0913 -9.51379,-13.0913l-39.9992 0zm99.9981 0c-4.33819,0 -8.16851,2.78977 -9.51379,6.90945 -2.06929,6.46654 2.71063,13.0913 9.51379,13.0913l39.9992 0c4.33819,0 8.16851,-2.78977 9.51379,-6.90945 2.06929,-6.46654 -2.71063,-13.0913 -9.51379,-13.0913l-39.9992 0zm99.9981 0c-4.33819,0 -8.16851,2.78977 -9.51379,6.90945 -2.06929,6.46654 2.71063,13.0913 9.51379,13.0913l39.9992 0c4.33819,0 8.16851,-2.78977 9.51379,-6.90945 2.06929,-6.46654 -2.71063,-13.0913 -9.51379,-13.0913l-39.9992 0zm99.9981 0c-4.33819,0 -8.16851,2.78977 -9.51379,6.90945 -2.06929,6.46654 2.71063,13.0913 9.51379,13.0913l39.9992 0c4.33819,0 8.16851,-2.78977 9.51379,-6.90945 2.06929,-6.46654 -2.71063,-13.0913 -9.51379,-13.0913l-39.9992 0zm99.9981 0c-4.33819,0 -8.16851,2.78977 -9.51379,6.90945 -2.06929,6.46654 2.71063,13.0913 9.51379,13.0913l39.9992 0c4.33819,0 8.16851,-2.78977 9.51379,-6.90945 2.06929,-6.46654 -2.71063,-13.0913 -9.51379,-13.0913l-39.9992 0zm99.9981 0c-4.33819,0 -8.16851,2.78977 -9.51379,6.90945 -2.06929,6.46654 2.71063,13.0913 9.51379,13.0913l39.9992 0c4.33819,0 8.16851,-2.78977 9.51379,-6.90945 2.06929,-6.46654 -2.71063,-13.0913 -9.51379,-13.0913l-39.9992 0zm99.9981 0c-4.33819,0 -8.16851,2.78977 -9.51379,6.90945 -2.06929,6.46654 2.71063,13.0913 9.51379,13.0913l39.9992 0c4.33819,0 8.16851,-2.78977 9.51379,-6.90945 2.06929,-6.46654 -2.71063,-13.0913 -9.51379,-13.0913l-39.9992 0z"/>
   <path id="_420258128" class="fil2" d="M490.361 1001.75c-11.6197,-11.6209 -27.6815,-18.8103 -45.4241,-18.8103 -17.7425,0 -33.8044,7.18938 -45.4241,18.8103 -11.6209,11.6197 -18.8103,27.6815 -18.8103,45.4241 0,17.7425 7.18938,33.8044 18.8103,45.4241 11.6197,11.6209 27.6815,18.8103 45.4241,18.8103 17.7425,0 33.8044,-7.18938 45.4241,-18.8103 11.6209,-11.6197 18.8103,-27.6815 18.8103,-45.4241 0,-17.7425 -7.18938,-33.8044 -18.8103,-45.4241zm-45.4241 -104.459c41.3859,0 78.8564,16.7776 105.979,43.904 27.1264,27.1229 43.904,64.5969 43.904,105.979 0,41.3859 -16.7776,78.8564 -43.904,105.979 -27.1229,27.1264 -64.5934,43.904 -105.979,43.904 -41.3823,0 -78.8564,-16.7776 -105.979,-43.904 -27.1264,-27.1229 -43.904,-64.5934 -43.904,-105.979 0,-41.3823 16.7776,-78.8564 43.904,-105.979 27.1229,-27.1264 64.5969,-43.904 105.979,-43.904z"/>
   <path id="_420257792" class="fil8" d="M509.171 1047.17c0,-17.7425 -7.18938,-33.8044 -18.8103,-45.4241 -11.6197,-11.6209 -27.6815,-18.8103 -45.4241,-18.8103 -17.7425,0 -33.8044,7.18938 -45.4241,18.8103 -11.6209,11.6197 -18.8103,27.6815 -18.8103,45.4241 0,17.7425 7.18938,33.8044 18.8103,45.4241 11.6197,11.6209 27.6815,18.8103 45.4241,18.8103 17.7425,0 33.8044,-7.18938 45.4241,-18.8103 11.6209,-11.6197 18.8103,-27.6815 18.8103,-45.4241z"/>
   <path id="_420258248" class="fil8" d="M1651.61 1047.17c0,-18.6732 -7.56733,-35.5772 -19.7977,-47.8075 -12.2303,-12.2303 -29.1343,-19.7977 -47.8075,-19.7977 -18.6732,0 -35.5772,7.56733 -47.8075,19.7977 -12.2303,12.2303 -19.7977,29.1343 -19.7977,47.8075 0,18.6732 7.56733,35.5772 19.7977,47.8075 12.2303,12.2303 29.1343,19.7977 47.8075,19.7977 18.6732,0 35.5772,-7.56733 47.8075,-19.7977 12.2303,-12.2303 19.7977,-29.1343 19.7977,-47.8075z"/>
   <path id="_420258272" class="fil9" d="M544.001 1574.67c-17.6728,0 -32.0008,14.328 -32.0008,32.0008 0,17.6728 14.328,32.0008 32.0008,32.0008l192 0c17.6728,0 32.0008,-14.328 32.0008,-32.0008 0,-17.6728 -14.328,-32.0008 -32.0008,-32.0008l-192 0z"/>
   <path id="_420256904" class="fil9" d="M1344 1574.67c-17.6728,0 -32.0008,14.328 -32.0008,32.0008 0,17.6728 14.328,32.0008 32.0008,32.0008l192 0c17.6728,0 32.0008,-14.328 32.0008,-32.0008 0,-17.6728 -14.328,-32.0008 -32.0008,-32.0008l-192 0z"/>
   <g>
    <g>
     <path id="_420257072" class="fil2" d="M686.535 1132.18c-4.09607,-4.09489 -9.75709,-6.62953 -16.0099,-6.62953 -6.25276,0 -11.9138,2.53465 -16.0099,6.62953 -4.09489,4.09607 -6.62953,9.75709 -6.62953,16.0099 0,6.25276 2.53465,11.9138 6.62953,16.0099 4.09607,4.09489 9.75709,6.62953 16.0099,6.62953 6.25276,0 11.9138,-2.53465 16.0099,-6.62953 4.09489,-4.09607 6.62953,-9.75709 6.62953,-16.0099 0,-6.25276 -2.53465,-11.9138 -6.62953,-16.0099zm-16.0099 -36.815c14.5866,0 27.7925,5.9126 37.3512,15.4736 9.56103,9.55867 15.4736,22.7658 15.4736,37.3512 0,14.5866 -5.9126,27.7925 -15.4736,37.3512 -9.55867,9.56103 -22.7646,15.4736 -37.3512,15.4736 -14.5854,0 -27.7925,-5.9126 -37.3512,-15.4736 -9.56103,-9.55867 -15.4736,-22.7646 -15.4736,-37.3512 0,-14.5854 5.9126,-27.7925 15.4736,-37.3512 9.55867,-9.56103 22.7658,-15.4736 37.3512,-15.4736z"/>
     <path id="_420256832" class="fil8" d="M686.535 1164.2c4.09489,-4.09607 6.62953,-9.75709 6.62953,-16.0099 0,-6.25276 -2.53465,-11.9138 -6.62953,-16.0099 -4.09607,-4.09489 -9.75709,-6.62953 -16.0099,-6.62953 -6.25276,0 -11.9138,2.53465 -16.0099,6.62953 -4.09489,4.09607 -6.62953,9.75709 -6.62953,16.0099 0,6.25276 2.53465,11.9138 6.62953,16.0099 4.09607,4.09489 9.75709,6.62953 16.0099,6.62953 6.25276,0 11.9138,-2.53465 16.0099,-6.62953z"/>
    </g>
    <g>
     <path id="_420257144" class="fil2" d="M822.096 1132.18c-4.09607,-4.09489 -9.75709,-6.62953 -16.0099,-6.62953 -6.25276,0 -11.9138,2.53465 -16.0087,6.62953 -4.09607,4.09607 -6.62953,9.75709 -6.62953,16.0099 0,6.25276 2.53347,11.9138 6.62953,16.0099 4.09489,4.09489 9.75591,6.62953 16.0087,6.62953 6.25276,0 11.9138,-2.53465 16.0099,-6.62953 4.09489,-4.09607 6.62953,-9.75709 6.62953,-16.0099 0,-6.25276 -2.53465,-11.9138 -6.62953,-16.0099zm-16.0099 -36.815c14.5866,0 27.7925,5.9126 37.3512,15.4736 9.56103,9.55867 15.4736,22.7658 15.4736,37.3512 0,14.5866 -5.9126,27.7925 -15.4736,37.3512 -9.55867,9.56103 -22.7646,15.4736 -37.3512,15.4736 -14.5843,0 -27.7925,-5.9126 -37.3512,-15.4736 -9.55985,-9.55867 -15.4736,-22.7646 -15.4736,-37.3512 0,-14.5854 5.91378,-27.7925 15.4736,-37.3512 9.55867,-9.56103 22.7669,-15.4736 37.3512,-15.4736z"/>
     <path id="_420257216" class="fil8" d="M828.726 1148.19c0,-6.25276 -2.53465,-11.9138 -6.62953,-16.0099 -4.09607,-4.09489 -9.75709,-6.62953 -16.0099,-6.62953 -6.25276,0 -11.9138,2.53465 -16.0087,6.62953 -4.09607,4.09607 -6.62953,9.75709 -6.62953,16.0099 0,6.25276 2.53347,11.9138 6.62953,16.0099 4.09489,4.09489 9.75591,6.62953 16.0087,6.62953 6.25276,0 11.9138,-2.53465 16.0099,-6.62953 4.09489,-4.09607 6.62953,-9.75709 6.62953,-16.0099z"/>
    </g>
    <g>
     <path id="_420257240" class="fil2" d="M957.656 1132.18c-4.09489,-4.09489 -9.75591,-6.62953 -16.0087,-6.62953 -6.25276,0 -11.9138,2.53465 -16.0099,6.62953 -4.09489,4.09607 -6.62953,9.75709 -6.62953,16.0099 0,6.25276 2.53465,11.9138 6.62953,16.0099 4.09607,4.09489 9.75709,6.62953 16.0099,6.62953 6.25276,0 11.9138,-2.53465 16.0087,-6.62953 4.09607,-4.09607 6.62953,-9.75709 6.62953,-16.0099 0,-6.25276 -2.53347,-11.9138 -6.62953,-16.0099zm-16.0087 -36.815c14.5854,0 27.7925,5.9126 37.3512,15.4736 9.55985,9.55867 15.4736,22.7658 15.4736,37.3512 0,14.5866 -5.91378,27.7925 -15.4736,37.3512 -9.55867,9.56103 -22.7658,15.4736 -37.3512,15.4736 -14.5854,0 -27.7925,-5.9126 -37.3512,-15.4736 -9.56103,-9.55867 -15.4736,-22.7646 -15.4736,-37.3512 0,-14.5854 5.9126,-27.7925 15.4736,-37.3512 9.55867,-9.56103 22.7658,-15.4736 37.3512,-15.4736z"/>
     <path id="_420256040" class="fil8" d="M964.286 1148.19c0,-6.25276 -2.53347,-11.9138 -6.62953,-16.0099 -4.09489,-4.09489 -9.75591,-6.62953 -16.0087,-6.62953 -6.25276,0 -11.9138,2.53465 -16.0099,6.62953 -4.09489,4.09607 -6.62953,9.75709 -6.62953,16.0099 0,6.25276 2.53465,11.9138 6.62953,16.0099 4.09607,4.09489 9.75709,6.62953 16.0099,6.62953 6.25276,0 11.9138,-2.53465 16.0087,-6.62953 4.09607,-4.09607 6.62953,-9.75709 6.62953,-16.0099z"/>
    </g>
    <g>
     <path id="_420256592" class="fil2" d="M1093.22 1132.18c-4.09607,-4.09489 -9.75709,-6.62953 -16.0099,-6.62953 -6.25276,0 -11.9138,2.53465 -16.0099,6.62953 -4.09489,4.09607 -6.62953,9.75709 -6.62953,16.0099 0,6.25276 2.53465,11.9138 6.62953,16.0099 4.09607,4.09489 9.75709,6.62953 16.0099,6.62953 6.25276,0 11.9138,-2.53465 16.0099,-6.62953 4.09489,-4.09607 6.62953,-9.75709 6.62953,-16.0099 0,-6.25276 -2.53465,-11.9138 -6.62953,-16.0099zm-16.0099 -36.815c14.5866,0 27.7925,5.9126 37.3512,15.4736 9.56103,9.55867 15.4736,22.7658 15.4736,37.3512 0,14.5866 -5.9126,27.7925 -15.4736,37.3512 -9.55867,9.56103 -22.7646,15.4736 -37.3512,15.4736 -14.5854,0 -27.7925,-5.9126 -37.3512,-15.4736 -9.56103,-9.55867 -15.4736,-22.7646 -15.4736,-37.3512 0,-14.5854 5.9126,-27.7925 15.4736,-37.3512 9.55867,-9.56103 22.7658,-15.4736 37.3512,-15.4736z"/>
     <path id="_420256712" class="fil8" d="M1093.22 1164.2c4.09489,-4.09607 6.62953,-9.75709 6.62953,-16.0099 0,-6.25276 -2.53465,-11.9138 -6.62953,-16.0099 -4.09607,-4.09489 -9.75709,-6.62953 -16.0099,-6.62953 -6.25276,0 -11.9138,2.53465 -16.0099,6.62953 -4.09489,4.09607 -6.62953,9.75709 -6.62953,16.0099 0,6.25276 2.53465,11.9138 6.62953,16.0099 4.09607,4.09489 9.75709,6.62953 16.0099,6.62953 6.25276,0 11.9138,-2.53465 16.0099,-6.62953z"/>
    </g>
    <g>
     <path id="_420256088" class="fil2" d="M1228.78 1132.18c-4.09607,-4.09489 -9.75709,-6.62953 -16.0099,-6.62953 -6.25276,0 -11.9138,2.53465 -16.0087,6.62953 -4.09607,4.09607 -6.62953,9.75709 -6.62953,16.0099 0,6.25276 2.53347,11.9138 6.62953,16.0099 4.09489,4.09489 9.75591,6.62953 16.0087,6.62953 6.25276,0 11.9138,-2.53465 16.0099,-6.62953 4.09489,-4.09607 6.62953,-9.75709 6.62953,-16.0099 0,-6.25276 -2.53465,-11.9138 -6.62953,-16.0099zm-16.0099 -36.815c14.5866,0 27.7925,5.9126 37.3512,15.4736 9.56103,9.55867 15.4736,22.7658 15.4736,37.3512 0,14.5866 -5.9126,27.7925 -15.4736,37.3512 -9.55867,9.56103 -22.7646,15.4736 -37.3512,15.4736 -14.5843,0 -27.7925,-5.9126 -37.3512,-15.4736 -9.55985,-9.55867 -15.4736,-22.7646 -15.4736,-37.3512 0,-14.5854 5.91378,-27.7925 15.4736,-37.3512 9.55867,-9.56103 22.7669,-15.4736 37.3512,-15.4736z"/>
     <path id="_420255248" class="fil8" d="M1235.41 1148.19c0,-6.25276 -2.53465,-11.9138 -6.62953,-16.0099 -4.09607,-4.09489 -9.75709,-6.62953 -16.0099,-6.62953 -6.25276,0 -11.9138,2.53465 -16.0087,6.62953 -4.09607,4.09607 -6.62953,9.75709 -6.62953,16.0099 0,6.25276 2.53347,11.9138 6.62953,16.0099 4.09489,4.09489 9.75591,6.62953 16.0087,6.62953 6.25276,0 11.9138,-2.53465 16.0099,-6.62953 4.09489,-4.09607 6.62953,-9.75709 6.62953,-16.0099z"/>
    </g>
    <g>
     <path id="_420255824" class="fil2" d="M1364.34 1132.18c-4.09489,-4.09489 -9.75591,-6.62953 -16.0087,-6.62953 -6.25276,0 -11.9138,2.53465 -16.0099,6.62953 -4.09489,4.09607 -6.62953,9.75709 -6.62953,16.0099 0,6.25276 2.53465,11.9138 6.62953,16.0099 4.09607,4.09489 9.75709,6.62953 16.0099,6.62953 6.25276,0 11.9138,-2.53465 16.0087,-6.62953 4.09607,-4.09607 6.62953,-9.75709 6.62953,-16.0099 0,-6.25276 -2.53347,-11.9138 -6.62953,-16.0099zm-16.0087 -36.815c14.5854,0 27.7925,5.9126 37.3512,15.4736 9.55985,9.55867 15.4736,22.7658 15.4736,37.3512 0,14.5866 -5.91378,27.7925 -15.4736,37.3512 -9.55867,9.56103 -22.7658,15.4736 -37.3512,15.4736 -14.5854,0 -27.7925,-5.9126 -37.3512,-15.4736 -9.56103,-9.55867 -15.4736,-22.7646 -15.4736,-37.3512 0,-14.5854 5.9126,-27.7925 15.4736,-37.3512 9.55867,-9.56103 22.7658,-15.4736 37.3512,-15.4736z"/>
     <path id="_420255656" class="fil8" d="M1370.97 1148.19c0,-6.25276 -2.53347,-11.9138 -6.62953,-16.0099 -4.09489,-4.09489 -9.75591,-6.62953 -16.0087,-6.62953 -6.25276,0 -11.9138,2.53465 -16.0099,6.62953 -4.09489,4.09607 -6.62953,9.75709 -6.62953,16.0099 0,6.25276 2.53465,11.9138 6.62953,16.0099 4.09607,4.09489 9.75709,6.62953 16.0099,6.62953 6.25276,0 11.9138,-2.53465 16.0087,-6.62953 4.09607,-4.09607 6.62953,-9.75709 6.62953,-16.0099z"/>
    </g>
   </g>
   <g>
    <g>
     <path id="_420255296" class="fil2" d="M701.105 916.594c-4.09607,-4.09489 -9.75709,-6.62953 -16.0099,-6.62953 -6.25276,0 -11.9138,2.53465 -16.0099,6.62953 -4.09489,4.09607 -6.62953,9.75709 -6.62953,16.0099 0,6.25276 2.53465,11.9138 6.62953,16.0099 4.09607,4.09489 9.75709,6.62953 16.0099,6.62953 6.25276,0 11.9138,-2.53465 16.0099,-6.62953 4.09489,-4.09607 6.62953,-9.75709 6.62953,-16.0099 0,-6.25276 -2.53465,-11.9138 -6.62953,-16.0099zm-16.0099 -36.815c14.5866,0 27.7925,5.9126 37.3512,15.4736 9.56103,9.55867 15.4736,22.7658 15.4736,37.3512 0,14.5866 -5.9126,27.7925 -15.4736,37.3512 -9.55867,9.56103 -22.7646,15.4736 -37.3512,15.4736 -14.5854,0 -27.7925,-5.9126 -37.3512,-15.4736 -9.56103,-9.55867 -15.4736,-22.7646 -15.4736,-37.3512 0,-14.5854 5.9126,-27.7925 15.4736,-37.3512 9.55867,-9.56103 22.7658,-15.4736 37.3512,-15.4736z"/>
     <path id="_420255416" class="fil8" d="M701.105 948.614c4.09489,-4.09607 6.62953,-9.75709 6.62953,-16.0099 0,-6.25276 -2.53465,-11.9138 -6.62953,-16.0099 -4.09607,-4.09489 -9.75709,-6.62953 -16.0099,-6.62953 -6.25276,0 -11.9138,2.53465 -16.0099,6.62953 -4.09489,4.09607 -6.62953,9.75709 -6.62953,16.0099 0,6.25276 2.53465,11.9138 6.62953,16.0099 4.09607,4.09489 9.75709,6.62953 16.0099,6.62953 6.25276,0 11.9138,-2.53465 16.0099,-6.62953z"/>
    </g>
    <g>
     <path id="_420254480" class="fil2" d="M836.666 916.594c-4.09607,-4.09489 -9.75709,-6.62953 -16.0099,-6.62953 -6.25276,0 -11.9138,2.53465 -16.0087,6.62953 -4.09607,4.09607 -6.62953,9.75709 -6.62953,16.0099 0,6.25276 2.53347,11.9138 6.62953,16.0099 4.09489,4.09489 9.75591,6.62953 16.0087,6.62953 6.25276,0 11.9138,-2.53465 16.0099,-6.62953 4.09489,-4.09607 6.62953,-9.75709 6.62953,-16.0099 0,-6.25276 -2.53465,-11.9138 -6.62953,-16.0099zm-16.0099 -36.815c14.5866,0 27.7925,5.9126 37.3512,15.4736 9.56103,9.55867 15.4736,22.7658 15.4736,37.3512 0,14.5866 -5.9126,27.7925 -15.4736,37.3512 -9.55867,9.56103 -22.7646,15.4736 -37.3512,15.4736 -14.5843,0 -27.7925,-5.9126 -37.3512,-15.4736 -9.55985,-9.55867 -15.4736,-22.7646 -15.4736,-37.3512 0,-14.5854 5.91378,-27.7925 15.4736,-37.3512 9.55867,-9.56103 22.7669,-15.4736 37.3512,-15.4736z"/>
     <path id="_420254888" class="fil8" d="M843.296 932.604c0,-6.25276 -2.53465,-11.9138 -6.62953,-16.0099 -4.09607,-4.09489 -9.75709,-6.62953 -16.0099,-6.62953 -6.25276,0 -11.9138,2.53465 -16.0087,6.62953 -4.09607,4.09607 -6.62953,9.75709 -6.62953,16.0099 0,6.25276 2.53347,11.9138 6.62953,16.0099 4.09489,4.09489 9.75591,6.62953 16.0087,6.62953 6.25276,0 11.9138,-2.53465 16.0099,-6.62953 4.09489,-4.09607 6.62953,-9.75709 6.62953,-16.0099z"/>
    </g>
    <g>
     <path id="_420254768" class="fil2" d="M972.226 916.594c-4.09489,-4.09489 -9.75591,-6.62953 -16.0087,-6.62953 -6.25276,0 -11.9138,2.53465 -16.0099,6.62953 -4.09489,4.09607 -6.62953,9.75709 -6.62953,16.0099 0,6.25276 2.53465,11.9138 6.62953,16.0099 4.09607,4.09489 9.75709,6.62953 16.0099,6.62953 6.25276,0 11.9138,-2.53465 16.0087,-6.62953 4.09607,-4.09607 6.62953,-9.75709 6.62953,-16.0099 0,-6.25276 -2.53347,-11.9138 -6.62953,-16.0099zm-16.0087 -36.815c14.5854,0 27.7925,5.9126 37.3512,15.4736 9.55985,9.55867 15.4736,22.7658 15.4736,37.3512 0,14.5866 -5.91378,27.7925 -15.4736,37.3512 -9.55867,9.56103 -22.7658,15.4736 -37.3512,15.4736 -14.5854,0 -27.7925,-5.9126 -37.3512,-15.4736 -9.56103,-9.55867 -15.4736,-22.7646 -15.4736,-37.3512 0,-14.5854 5.9126,-27.7925 15.4736,-37.3512 9.55867,-9.56103 22.7658,-15.4736 37.3512,-15.4736z"/>
     <path id="_420254600" class="fil8" d="M978.856 932.604c0,-6.25276 -2.53347,-11.9138 -6.62953,-16.0099 -4.09489,-4.09489 -9.75591,-6.62953 -16.0087,-6.62953 -6.25276,0 -11.9138,2.53465 -16.0099,6.62953 -4.09489,4.09607 -6.62953,9.75709 -6.62953,16.0099 0,6.25276 2.53465,11.9138 6.62953,16.0099 4.09607,4.09489 9.75709,6.62953 16.0099,6.62953 6.25276,0 11.9138,-2.53465 16.0087,-6.62953 4.09607,-4.09607 6.62953,-9.75709 6.62953,-16.0099z"/>
    </g>
    <g>
     <path id="_420254648" class="fil2" d="M1107.79 916.594c-4.09607,-4.09489 -9.75709,-6.62953 -16.0099,-6.62953 -6.25276,0 -11.9138,2.53465 -16.0099,6.62953 -4.09489,4.09607 -6.62953,9.75709 -6.62953,16.0099 0,6.25276 2.53465,11.9138 6.62953,16.0099 4.09607,4.09489 9.75709,6.62953 16.0099,6.62953 6.25276,0 11.9138,-2.53465 16.0099,-6.62953 4.09489,-4.09607 6.62953,-9.75709 6.62953,-16.0099 0,-6.25276 -2.53465,-11.9138 -6.62953,-16.0099zm-16.0099 -36.815c14.5866,0 27.7925,5.9126 37.3512,15.4736 9.56103,9.55867 15.4736,22.7658 15.4736,37.3512 0,14.5866 -5.9126,27.7925 -15.4736,37.3512 -9.55867,9.56103 -22.7646,15.4736 -37.3512,15.4736 -14.5854,0 -27.7925,-5.9126 -37.3512,-15.4736 -9.56103,-9.55867 -15.4736,-22.7646 -15.4736,-37.3512 0,-14.5854 5.9126,-27.7925 15.4736,-37.3512 9.55867,-9.56103 22.7658,-15.4736 37.3512,-15.4736z"/>
     <path id="_420253712" class="fil8" d="M1107.79 948.614c4.09489,-4.09607 6.62953,-9.75709 6.62953,-16.0099 0,-6.25276 -2.53465,-11.9138 -6.62953,-16.0099 -4.09607,-4.09489 -9.75709,-6.62953 -16.0099,-6.62953 -6.25276,0 -11.9138,2.53465 -16.0099,6.62953 -4.09489,4.09607 -6.62953,9.75709 -6.62953,16.0099 0,6.25276 2.53465,11.9138 6.62953,16.0099 4.09607,4.09489 9.75709,6.62953 16.0099,6.62953 6.25276,0 11.9138,-2.53465 16.0099,-6.62953z"/>
    </g>
    <g>
     <path id="_420254264" class="fil2" d="M1243.35 916.594c-4.09607,-4.09489 -9.75709,-6.62953 -16.0099,-6.62953 -6.25276,0 -11.9138,2.53465 -16.0087,6.62953 -4.09607,4.09607 -6.62953,9.75709 -6.62953,16.0099 0,6.25276 2.53347,11.9138 6.62953,16.0099 4.09489,4.09489 9.75591,6.62953 16.0087,6.62953 6.25276,0 11.9138,-2.53465 16.0099,-6.62953 4.09489,-4.09607 6.62953,-9.75709 6.62953,-16.0099 0,-6.25276 -2.53465,-11.9138 -6.62953,-16.0099zm-16.0099 -36.815c14.5866,0 27.7925,5.9126 37.3512,15.4736 9.56103,9.55867 15.4736,22.7658 15.4736,37.3512 0,14.5866 -5.9126,27.7925 -15.4736,37.3512 -9.55867,9.56103 -22.7646,15.4736 -37.3512,15.4736 -14.5843,0 -27.7925,-5.9126 -37.3512,-15.4736 -9.55985,-9.55867 -15.4736,-22.7646 -15.4736,-37.3512 0,-14.5854 5.91378,-27.7925 15.4736,-37.3512 9.55867,-9.56103 22.7669,-15.4736 37.3512,-15.4736z"/>
     <path id="_420253832" class="fil8" d="M1249.98 932.604c0,-6.25276 -2.53465,-11.9138 -6.62953,-16.0099 -4.09607,-4.09489 -9.75709,-6.62953 -16.0099,-6.62953 -6.25276,0 -11.9138,2.53465 -16.0087,6.62953 -4.09607,4.09607 -6.62953,9.75709 -6.62953,16.0099 0,6.25276 2.53347,11.9138 6.62953,16.0099 4.09489,4.09489 9.75591,6.62953 16.0087,6.62953 6.25276,0 11.9138,-2.53465 16.0099,-6.62953 4.09489,-4.09607 6.62953,-9.75709 6.62953,-16.0099z"/>
    </g>
    <g>
     <path id="_420254360" class="fil2" d="M1378.91 916.594c-4.09489,-4.09489 -9.75591,-6.62953 -16.0087,-6.62953 -6.25276,0 -11.9138,2.53465 -16.0099,6.62953 -4.09489,4.09607 -6.62953,9.75709 -6.62953,16.0099 0,6.25276 2.53465,11.9138 6.62953,16.0099 4.09607,4.09489 9.75709,6.62953 16.0099,6.62953 6.25276,0 11.9138,-2.53465 16.0087,-6.62953 4.09607,-4.09607 6.62953,-9.75709 6.62953,-16.0099 0,-6.25276 -2.53347,-11.9138 -6.62953,-16.0099zm-16.0087 -36.815c14.5854,0 27.7925,5.9126 37.3512,15.4736 9.55985,9.55867 15.4736,22.7658 15.4736,37.3512 0,14.5866 -5.91378,27.7925 -15.4736,37.3512 -9.55867,9.56103 -22.7658,15.4736 -37.3512,15.4736 -14.5854,0 -27.7925,-5.9126 -37.3512,-15.4736 -9.56103,-9.55867 -15.4736,-22.7646 -15.4736,-37.3512 0,-14.5854 5.9126,-27.7925 15.4736,-37.3512 9.55867,-9.56103 22.7658,-15.4736 37.3512,-15.4736z"/>
     <path id="_420254000" class="fil8" d="M1385.54 932.604c0,-6.25276 -2.53347,-11.9138 -6.62953,-16.0099 -4.09489,-4.09489 -9.75591,-6.62953 -16.0087,-6.62953 -6.25276,0 -11.9138,2.53465 -16.0099,6.62953 -4.09489,4.09607 -6.62953,9.75709 -6.62953,16.0099 0,6.25276 2.53465,11.9138 6.62953,16.0099 4.09607,4.09489 9.75709,6.62953 16.0099,6.62953 6.25276,0 11.9138,-2.53465 16.0087,-6.62953 4.09607,-4.09607 6.62953,-9.75709 6.62953,-16.0099z"/>
    </g>
   </g>
   <g>
    <path id="_420253496" class="fil10" d="M477.03 1047.17c0,-17.7248 -14.3681,-32.0929 -32.0929,-32.0929 -17.7248,0 -32.0929,14.3681 -32.0929,32.0929 0,17.7248 14.3681,32.0929 32.0929,32.0929 17.7248,0 32.0929,-14.3681 32.0929,-32.0929z"/>
    <path id="_420253064" class="fil11" d="M471.341 934.777c0,22.878 -19.8154,41.4225 -26.4036,41.4225 -6.58938,0 -26.4047,-18.5445 -26.4047,-41.4225 0,-21.561 52.8083,-21.561 52.8083,0zm34.402 210.543c-16.1764,-16.1764 -15.2788,-43.3004 -10.6193,-47.9599 4.65945,-4.65945 31.7835,-5.55709 47.9599,10.6193 15.2469,15.2457 -22.0949,52.5874 -37.3406,37.3406zm-158.953 -158.952c16.1764,16.1764 43.3016,15.2776 47.9611,10.6193 4.65827,-4.65945 5.55709,-31.7847 -10.6193,-47.9611 -15.2469,-15.2457 -52.5874,22.0949 -37.3418,37.3418zm210.542 87.2091c-22.8756,0 -41.4201,-19.8154 -41.4201,-26.4036 0,-6.58938 18.5445,-26.4036 41.4201,-26.4036 21.5622,0 21.5622,52.8071 0,52.8071zm-224.791 0c22.8768,0 41.4213,-19.8154 41.4213,-26.4036 0,-6.58938 -18.5445,-26.4036 -41.4213,-26.4036 -21.5622,0 -21.5622,52.8071 0,52.8071zm210.542 -87.2091c-16.1764,16.1764 -43.3004,15.2776 -47.9599,10.6193 -4.65945,-4.65945 -5.55709,-31.7847 10.6193,-47.9611 15.2457,-15.2457 52.5874,22.0949 37.3406,37.3418zm-158.952 158.952c16.1764,-16.1764 15.2776,-43.3004 10.6193,-47.9599 -4.65945,-4.65945 -31.7847,-5.55709 -47.9611,10.6193 -15.2457,15.2457 22.0949,52.5874 37.3418,37.3406zm87.2091 14.25c0,-22.8768 -19.8154,-41.4213 -26.4036,-41.4213 -6.58938,0 -26.4047,18.5445 -26.4047,41.4213 0,21.5622 52.8083,21.5622 52.8083,0zm-19.4421 -269.94c2.46969,0.10748 4.9252,0.275197 7.36418,0.496063l-0.281103 2.06811c-0.514961,3.7937 2.16614,7.3193 5.95985,7.83544l0.0011811 0c3.7937,0.516142 7.32048,-2.16614 7.83544,-5.95985l0.283465 -2.07756c3.36733,0.605906 6.69804,1.31457 9.98859,2.13071l-0.6 2.02559c-1.08898,3.67087 1.02402,7.56379 4.69489,8.65276l0.0011811 0c3.67087,1.08898 7.56379,-1.02402 8.65158,-4.69607l0.602363 -2.0315c3.23032,1.11496 6.41221,2.33504 9.54331,3.65079l-0.903544 1.90984c-1.63465,3.46181 -0.140551,7.63229 3.32244,9.26812l0 0.0011811c3.46181,1.63347 7.63229,0.13937 9.26694,-3.32362l0.900001 -1.90394c3.01654,1.59449 5.97756,3.27756 8.87481,5.05867l-1.17874 1.74449c-2.14488,3.17126 -1.30276,7.52008 1.86969,9.66497l0 0.0011811c3.17244,2.14252 7.52127,1.30158 9.66497,-1.87087l1.16929 -1.73032c2.73544,2.03268 5.39882,4.15276 7.99134,6.35552l-1.4126 1.5248c-2.60197,2.80984 -2.43425,7.23426 0.37441,9.83859l0 0.00236221c2.80866,2.60079 7.23426,2.43307 9.83859,-0.375591l1.41142 -1.52362c2.39055,2.42126 4.70788,4.91693 6.94016,7.48701l-1.63347 1.29567c-3,2.37874 -3.50906,6.77953 -1.12913,9.78072l-0.0011811 0.0011811c2.37992,3 6.77835,3.51024 9.78072,1.12913l1.64291 -1.30276c1.99606,2.75433 3.89882,5.57717 5.71536,8.4626l-1.82599 1.03937c-3.32599,1.89449 -4.50237,6.16536 -2.60788,9.49371l0 0.00236221c1.89331,3.32717 6.16418,4.50118 9.49371,2.60669l1.83543 -1.0441c1.55079,3.02362 3.00945,6.10276 4.36772,9.23505l-1.98543 0.755906c-3.57638,1.36417 -5.38937,5.40709 -4.0252,8.98465l0 0.00236221c1.36417,3.57756 5.40355,5.38937 8.98465,4.02284l1.98898 -0.757087c1.06772,3.22087 2.02795,6.49016 2.88662,9.79961l-2.07166 0.444095c-3.74174,0.80315 -6.15,4.52244 -5.34804,8.26536l-0.0011811 0.00354331c0.80315,3.74292 4.5189,6.15 8.26654,5.34567l2.05984 -0.440552c0.558662,3.34016 1.01693,6.71575 1.36063,10.1232l-2.09528 0.121654c-3.82087,0.222047 -6.76772,3.53032 -6.54686,7.35237l0 0.00236221c0.222047,3.82205 3.52796,6.76772 7.35355,6.54331l2.07638 -0.119291c0.00944883,0.722835 0.0259843,1.44449 0.0259843,2.16969 0,2.69764 -0.068504,5.37756 -0.20315,8.04095l-2.08465 -0.198425c-3.81024,-0.36378 -7.22717,2.45669 -7.59095,6.26693l-0.0011811 0.00236221c-0.36378,3.81142 2.45433,7.22599 6.27166,7.58859l2.08819 0.199606c-0.47126,3.39213 -1.05118,6.75001 -1.7315,10.0689l-2.0504 -0.519685c-3.70866,-0.940158 -7.51654,1.32638 -8.4567,5.03741l-0.00236221 0.0011811c-0.940158,3.71221 1.32402,7.51654 5.04095,8.4567l2.06339 0.52441c-0.98504,3.2752 -2.07756,6.50079 -3.26693,9.6815l-1.95591 -0.829134c-3.52205,-1.49528 -7.63111,0.162992 -9.12638,3.68859l-0.00236221 0.0011811c-1.4941,3.52441 0.161811,7.62993 3.69213,9.1252l1.94764 0.826772c-1.47402,3.07914 -3.04016,6.1063 -4.70197,9.07087l-1.79646 -1.11142c-3.25394,-2.01614 -7.56733,-1.00158 -9.58347,2.25236l-0.0011811 0.0011811c-2.01496,3.2563 -1.00394,7.56733 2.25591,9.58229l1.78465 1.10669c-1.92284,2.81457 -3.93898,5.55827 -6.03662,8.2382l-1.58504 -1.35591c-2.90906,-2.4874 -7.32638,-2.1437 -9.81497,0.765355l-0.0011811 0.0011811c-2.4874,2.91024 -2.14606,7.32638 0.767717,9.81497l1.57914 1.35c-2.32559,2.48622 -4.73032,4.89922 -7.20945,7.2319l-1.35709 -1.57795c-2.49449,-2.90079 -6.913,-3.23622 -9.81497,-0.739371l-0.00236221 0c-2.90197,2.49803 -3.2374,6.913 -0.737008,9.81851l1.36299 1.58504c-2.67402,2.10354 -5.42008,4.11969 -8.23111,6.04725l-1.10669 -1.77638c-2.02323,-3.24803 -6.3378,-4.25079 -9.5882,-2.22756l-0.00236221 0c-3.24803,2.02677 -4.25197,6.33898 -2.2252,9.58938l1.11024 1.78347c-2.96103,1.67008 -5.97874,3.24803 -9.05198,4.73032l-0.830316 -1.94055c-1.50473,-3.51851 -5.61615,-5.16851 -9.1382,-3.66378l-0.00236221 0c-3.51851,1.50827 -5.16851,5.61733 -3.66142,9.1382l0.83504 1.95354c-3.17717,1.19646 -6.4063,2.28425 -9.67678,3.27638l-0.525591 -2.04803c-0.950788,-3.7063 -4.76221,-5.96457 -8.47087,-5.01378l-0.00236221 -0.0011811c-3.70866,0.95315 -5.96575,4.76221 -5.0126,8.47205l0.520867 2.0374c-2.14843,0.448819 -4.30985,0.858662 -6.49016,1.2189l-0.252756 -2.08583c-0.461811,-3.80079 -3.94843,-6.53386 -7.74922,-6.07205l-0.00236221 0.0011811c-3.80079,0.461811 -6.53268,3.94725 -6.07205,7.74922l0.251575 2.06339c-1.69606,0.12874 -3.39685,0.239764 -5.10709,0.314173l0 -2.08465c0,-3.82914 -3.13229,-6.96142 -6.96024,-6.96142l-0.00236221 0c-3.82914,0 -6.96142,3.13229 -6.96142,6.96142l0 2.08465c-2.46969,-0.10748 -4.92402,-0.276378 -7.36418,-0.496063l0.281103 -2.06811c0.516142,-3.7937 -2.16614,-7.3193 -5.95867,-7.83544l-0.00236221 0c-3.7937,-0.516142 -7.3193,2.16614 -7.83426,5.95985l-0.283465 2.07756c-3.36733,-0.605906 -6.69922,-1.31457 -9.98977,-2.13071l0.601182 -2.02559c1.0878,-3.67087 -1.02402,-7.56379 -4.69607,-8.65276l-0.0011811 0c-3.67087,-1.08898 -7.56379,1.02402 -8.65158,4.69607l-0.602363 2.0315c-3.23032,-1.11496 -6.41103,-2.33622 -9.54213,-3.65079l0.902363 -1.90984c1.63583,-3.46181 0.141732,-7.63229 -3.32126,-9.26812l-0.0011811 -0.0011811c-3.46181,-1.63347 -7.63229,-0.13937 -9.26576,3.32362l-0.900001 1.90394c-3.01654,-1.59449 -5.97874,-3.27756 -8.87481,-5.05867l1.17756 -1.74449c2.14488,-3.17126 1.30394,-7.52008 -1.86851,-9.66497l0 -0.0011811c-3.17244,-2.14252 -7.52127,-1.30158 -9.66497,1.87087l-1.17047 1.73032c-2.73425,-2.03268 -5.39646,-4.15512 -7.99134,-6.35552l1.41378 -1.5248c2.60197,-2.80984 2.43307,-7.23426 -0.37441,-9.83859l0 -0.00236221c-2.80866,-2.60079 -7.23426,-2.43307 -9.83859,0.375591l-1.41142 1.52362c-2.39292,-2.42008 -4.70906,-4.91693 -6.94134,-7.48701l1.63465 -1.29567c3,-2.37874 3.50906,-6.77953 1.12913,-9.78072l0.0011811 -0.0011811c-2.37992,-3 -6.77835,-3.51024 -9.78072,-1.12913l-1.6441 1.30276c-1.99606,-2.75433 -3.89764,-5.57835 -5.71536,-8.4626l1.82599 -1.03937c3.32717,-1.89449 4.50237,-6.16536 2.60906,-9.49371l0 -0.00236221c-1.89449,-3.32717 -6.16418,-4.50118 -9.49371,-2.60669l-1.83662 1.0441c-1.55079,-3.02362 -3.00945,-6.10394 -4.36654,-9.23505l1.98425 -0.755906c3.57638,-1.36417 5.39056,-5.40709 4.02638,-8.98465l0 -0.00236221c-1.36417,-3.57756 -5.40473,-5.38937 -8.98465,-4.02284l-1.99016 0.757087c-1.06772,-3.22087 -2.02559,-6.49016 -2.88662,-9.79961l2.07166 -0.444095c3.74174,-0.80315 6.15119,-4.52244 5.34922,-8.26536l0.0011811 -0.00354331c-0.80315,-3.74292 -4.52008,-6.15 -8.26654,-5.34567l-2.05984 0.440552c-0.559843,-3.34016 -1.01457,-6.71575 -1.36181,-10.1232l2.09528 -0.121654c3.82205,-0.222047 6.7689,-3.53032 6.54686,-7.35237l0 -0.00236221c-0.222047,-3.82205 -3.52677,-6.76772 -7.35355,-6.54331l-2.0752 0.119291c-0.00944883,-0.722835 -0.0259843,-1.44449 -0.0259843,-2.16969 0,-2.69764 0.0696851,-5.37756 0.20315,-8.04095l2.08465 0.198425c3.80906,0.36378 7.22717,-2.45669 7.58977,-6.26693l0.0011811 -0.00236221c0.36378,-3.81142 -2.45433,-7.22599 -6.27048,-7.58859l-2.08937 -0.199606c0.472441,-3.39213 1.04882,-6.75001 1.73268,-10.0689l2.0504 0.519685c3.70866,0.940158 7.51654,-1.32638 8.4567,-5.03741l0.0011811 -0.0011811c0.940158,-3.71221 -1.32402,-7.51654 -5.03977,-8.4567l-2.06339 -0.52441c0.983859,-3.27402 2.07756,-6.50079 3.26575,-9.6815l1.95591 0.829134c3.52323,1.49528 7.63111,-0.162992 9.12757,-3.68859l0.0011811 -0.0011811c1.49528,-3.52441 -0.161811,-7.62993 -3.69095,-9.1252l-1.94764 -0.826772c1.47284,-3.07914 3.03898,-6.1063 4.70079,-9.07087l1.79764 1.11142c3.25394,2.01614 7.56733,1.00158 9.58347,-2.25236l0.0011811 -0.0011811c2.01378,-3.2563 1.00394,-7.56733 -2.25591,-9.58229l-1.78583 -1.10669c1.92402,-2.81457 3.94016,-5.55827 6.0378,-8.2382l1.58504 1.35591c2.90788,2.4874 7.3252,2.1437 9.81379,-0.765355l0.00236221 -0.0011811c2.4874,-2.91024 2.14606,-7.32638 -0.768898,-9.81497l-1.57795 -1.35c2.32559,-2.48622 4.72914,-4.9004 7.20945,-7.2319l1.35591 1.57795c2.49449,2.90079 6.913,3.23622 9.81615,0.739371l0.0011811 0c2.90315,-2.49803 3.2374,-6.913 0.73819,-9.81851l-1.36299 -1.58504c2.67284,-2.10473 5.42126,-4.11733 8.22993,-6.04725l1.10787 1.77638c2.02323,3.24803 6.3378,4.25079 9.5882,2.22756l0.0011811 0c3.24803,-2.02677 4.25315,-6.33898 2.22638,-9.58938l-1.11142 -1.78347c2.95984,-1.67008 5.97874,-3.24922 9.05316,-4.73032l0.830316 1.94055c1.50354,3.51851 5.61615,5.16851 9.1382,3.66378l0.0011811 0c3.51969,-1.50827 5.16969,-5.61733 3.6626,-9.1382l-0.83504 -1.95354c3.17717,-1.19646 6.40512,-2.28425 9.67678,-3.27638l0.525591 2.04803c0.949607,3.7063 4.76221,5.96457 8.47087,5.01378l0.0011811 0.0011811c3.70866,-0.95315 5.96693,-4.76221 5.01378,-8.47205l-0.522048 -2.0374c2.14961,-0.448819 4.31103,-0.859843 6.49016,-1.2189l0.253937 2.08583c0.461811,3.80079 3.94725,6.53386 7.74922,6.07205l0.0011811 -0.0011811c3.80079,-0.461811 6.53386,-3.94725 6.07205,-7.74922l-0.250394 -2.06339c1.69488,-0.127559 3.39685,-0.239764 5.10591,-0.314173l0 2.08465c0,3.82914 3.13229,6.96142 6.96142,6.96142l0.00236221 0c3.82796,0 6.96024,-3.13229 6.96024,-6.96142l0 -2.08465zm-6.96142 127.022c16.8567,0 30.5209,13.6642 30.5209,30.5209 0,16.8567 -13.6642,30.5209 -30.5209,30.5209 -16.8567,0 -30.5209,-13.6642 -30.5209,-30.5209 0,-16.8567 13.6642,-30.5209 30.5209,-30.5209z"/>
    <path id="_420253040" class="fil12" d="M444.937 990.786c15.5705,0 29.6681,6.31182 39.8705,16.5154 10.2036,10.2036 16.5165,24.3012 16.5165,39.8717 0,15.5693 -6.31182,29.667 -16.5165,39.8717 -10.2024,10.2036 -24.3,16.5154 -39.8705,16.5154 -15.5693,0 -29.667,-6.31182 -39.8717,-16.5154 -10.2047,-10.2047 -16.5154,-24.3024 -16.5154,-39.8717 0,-15.5705 6.31182,-29.6681 16.5154,-39.8717 10.2047,-10.2036 24.3024,-16.5154 39.8717,-16.5154zm31.102 25.2851c-7.95827,-7.95827 -18.9543,-12.8823 -31.102,-12.8823 -12.1465,0 -23.1437,4.92284 -31.1032,12.8823 -7.95709,7.95709 -12.8811,18.9543 -12.8811,31.102 0,12.1465 4.92284,23.1437 12.8811,31.102 7.95945,7.95945 18.9567,12.8823 31.1032,12.8823 12.1476,0 23.1437,-4.92402 31.102,-12.8823 7.95827,-7.95827 12.8823,-18.9555 12.8823,-31.102 0,-12.1476 -4.92402,-23.1449 -12.8823,-31.102z"/>
    <path id="_420252944" class="fil13" d="M444.937 903.347c39.7158,0 75.6733,16.0984 101.7,42.1252 26.028,26.0268 42.1264,61.9855 42.1264,101.701 0,39.7158 -16.0984,75.6745 -42.1264,101.701 -26.0268,26.0268 -61.9843,42.1252 -101.7,42.1252 -39.717,0 -75.6745,-16.0984 -101.701,-42.1252 -26.0268,-26.0268 -42.1252,-61.9843 -42.1252,-101.701 0,-39.717 16.0984,-75.6745 42.1252,-101.701 26.0268,-26.0268 61.9855,-42.1252 101.701,-42.1252zm96.3083 47.517c-24.6449,-24.6461 -58.6961,-39.8906 -96.3083,-39.8906 -37.6134,0 -71.6634,15.2445 -96.3095,39.8906 -24.6449,24.6461 -39.8906,58.6973 -39.8906,96.3095 0,37.6122 15.2457,71.6634 39.8906,96.3095 24.6449,24.6449 58.6973,39.8906 96.3095,39.8906 37.6111,0 71.6634,-15.2457 96.3083,-39.8906 24.6473,-24.6461 39.8906,-58.6973 39.8906,-96.3095 0,-37.6122 -15.2433,-71.6634 -39.8906,-96.3095z"/>
    <path id="_420252992" class="fil14" d="M444.826 1019.44l12.0106 6.93426 12.0095 6.93426 0 13.8673 0 13.8673 -12.0095 6.93426 -12.0106 6.93426 -12.0106 -6.93426 -12.0095 -6.93426 0 -13.8673 0 -13.8673 12.0095 -6.93426 12.0106 -6.93426zm0 15.8988c6.53623,0 11.837,5.30079 11.837,11.837 0,6.53741 -5.30079,11.837 -11.837,11.837 -6.53623,0 -11.837,-5.29961 -11.837,-11.837 0,-6.53623 5.30079,-11.837 11.837,-11.837z"/>
   </g>
   <g>
    <path id="_420253400" class="fil10" d="M1616.09 1047.17c0,-17.7248 -14.3681,-32.0929 -32.0929,-32.0929 -17.7248,0 -32.0929,14.3681 -32.0929,32.0929 0,17.7248 14.3681,32.0929 32.0929,32.0929 17.7248,0 32.0929,-14.3681 32.0929,-32.0929z"/>
    <path id="_420253616" class="fil11" d="M1610.4 934.777c0,22.878 -19.8154,41.4225 -26.4036,41.4225 -6.58938,0 -26.4047,-18.5445 -26.4047,-41.4225 0,-21.561 52.8083,-21.561 52.8083,0zm34.402 210.543c-16.1764,-16.1764 -15.2788,-43.3004 -10.6193,-47.9599 4.65945,-4.65945 31.7835,-5.55709 47.9599,10.6193 15.2469,15.2457 -22.0949,52.5874 -37.3406,37.3406zm-158.953 -158.952c16.1764,16.1764 43.3016,15.2776 47.9611,10.6193 4.65827,-4.65945 5.55709,-31.7847 -10.6193,-47.9611 -15.2469,-15.2457 -52.5874,22.0949 -37.3418,37.3418zm210.542 87.2091c-22.8756,0 -41.4201,-19.8154 -41.4201,-26.4036 0,-6.58938 18.5445,-26.4036 41.4201,-26.4036 21.5622,0 21.5622,52.8071 0,52.8071zm-224.791 0c22.8768,0 41.4213,-19.8154 41.4213,-26.4036 0,-6.58938 -18.5445,-26.4036 -41.4213,-26.4036 -21.5622,0 -21.5622,52.8071 0,52.8071zm210.542 -87.2091c-16.1764,16.1764 -43.3004,15.2776 -47.9599,10.6193 -4.65945,-4.65945 -5.55709,-31.7847 10.6193,-47.9611 15.2457,-15.2457 52.5874,22.0949 37.3406,37.3418zm-158.952 158.952c16.1764,-16.1764 15.2776,-43.3004 10.6193,-47.9599 -4.65945,-4.65945 -31.7847,-5.55709 -47.9611,10.6193 -15.2457,15.2457 22.0949,52.5874 37.3418,37.3406zm87.2091 14.25c0,-22.8768 -19.8154,-41.4213 -26.4036,-41.4213 -6.58938,0 -26.4047,18.5445 -26.4047,41.4213 0,21.5622 52.8083,21.5622 52.8083,0zm-19.4421 -269.94c2.46969,0.10748 4.9252,0.275197 7.36418,0.496063l-0.281103 2.06811c-0.514961,3.7937 2.16614,7.3193 5.95985,7.83544l0.0011811 0c3.7937,0.516142 7.32048,-2.16614 7.83544,-5.95985l0.283465 -2.07756c3.36733,0.605906 6.69804,1.31457 9.98859,2.13071l-0.6 2.02559c-1.08898,3.67087 1.02402,7.56379 4.69489,8.65276l0.0011811 0c3.67087,1.08898 7.56379,-1.02402 8.65158,-4.69607l0.602363 -2.0315c3.23032,1.11496 6.41221,2.33504 9.54331,3.65079l-0.903544 1.90984c-1.63465,3.46181 -0.140551,7.63229 3.32244,9.26812l0 0.0011811c3.46181,1.63347 7.63229,0.13937 9.26694,-3.32362l0.900001 -1.90394c3.01654,1.59449 5.97756,3.27756 8.87481,5.05867l-1.17874 1.74449c-2.14488,3.17126 -1.30276,7.52008 1.86969,9.66497l0 0.0011811c3.17244,2.14252 7.52127,1.30158 9.66497,-1.87087l1.16929 -1.73032c2.73544,2.03268 5.39882,4.15276 7.99134,6.35552l-1.4126 1.5248c-2.60197,2.80984 -2.43425,7.23426 0.37441,9.83859l0 0.00236221c2.80866,2.60079 7.23426,2.43307 9.83859,-0.375591l1.41142 -1.52362c2.39055,2.42126 4.70788,4.91693 6.94016,7.48701l-1.63347 1.29567c-3,2.37874 -3.50906,6.77953 -1.12913,9.78072l-0.0011811 0.0011811c2.37992,3 6.77835,3.51024 9.78072,1.12913l1.64291 -1.30276c1.99606,2.75433 3.89882,5.57717 5.71536,8.4626l-1.82599 1.03937c-3.32599,1.89449 -4.50237,6.16536 -2.60788,9.49371l0 0.00236221c1.89331,3.32717 6.16418,4.50118 9.49371,2.60669l1.83543 -1.0441c1.55079,3.02362 3.00945,6.10276 4.36772,9.23505l-1.98543 0.755906c-3.57638,1.36417 -5.38937,5.40709 -4.0252,8.98465l0 0.00236221c1.36417,3.57756 5.40355,5.38937 8.98465,4.02284l1.98898 -0.757087c1.06772,3.22087 2.02795,6.49016 2.88662,9.79961l-2.07166 0.444095c-3.74174,0.80315 -6.15,4.52244 -5.34804,8.26536l-0.0011811 0.00354331c0.80315,3.74292 4.5189,6.15 8.26654,5.34567l2.05984 -0.440552c0.558662,3.34016 1.01693,6.71575 1.36063,10.1232l-2.09528 0.121654c-3.82087,0.222047 -6.76772,3.53032 -6.54686,7.35237l0 0.00236221c0.222047,3.82205 3.52796,6.76772 7.35355,6.54331l2.07638 -0.119291c0.00944883,0.722835 0.0259843,1.44449 0.0259843,2.16969 0,2.69764 -0.068504,5.37756 -0.20315,8.04095l-2.08465 -0.198425c-3.81024,-0.36378 -7.22717,2.45669 -7.59095,6.26693l-0.0011811 0.00236221c-0.36378,3.81142 2.45433,7.22599 6.27166,7.58859l2.08819 0.199606c-0.47126,3.39213 -1.05118,6.75001 -1.7315,10.0689l-2.0504 -0.519685c-3.70866,-0.940158 -7.51654,1.32638 -8.4567,5.03741l-0.00236221 0.0011811c-0.940158,3.71221 1.32402,7.51654 5.04095,8.4567l2.06339 0.52441c-0.98504,3.2752 -2.07756,6.50079 -3.26693,9.6815l-1.95591 -0.829134c-3.52205,-1.49528 -7.63111,0.162992 -9.12638,3.68859l-0.00236221 0.0011811c-1.4941,3.52441 0.161811,7.62993 3.69213,9.1252l1.94764 0.826772c-1.47402,3.07914 -3.04016,6.1063 -4.70197,9.07087l-1.79646 -1.11142c-3.25394,-2.01614 -7.56733,-1.00158 -9.58347,2.25236l-0.0011811 0.0011811c-2.01496,3.2563 -1.00394,7.56733 2.25591,9.58229l1.78465 1.10669c-1.92284,2.81457 -3.93898,5.55827 -6.03662,8.2382l-1.58504 -1.35591c-2.90906,-2.4874 -7.32638,-2.1437 -9.81497,0.765355l-0.0011811 0.0011811c-2.4874,2.91024 -2.14606,7.32638 0.767717,9.81497l1.57914 1.35c-2.32559,2.48622 -4.73032,4.89922 -7.20945,7.2319l-1.35709 -1.57795c-2.49449,-2.90079 -6.913,-3.23622 -9.81497,-0.739371l-0.00236221 0c-2.90197,2.49803 -3.2374,6.913 -0.737008,9.81851l1.36299 1.58504c-2.67402,2.10354 -5.42008,4.11969 -8.23111,6.04725l-1.10669 -1.77638c-2.02323,-3.24803 -6.3378,-4.25079 -9.5882,-2.22756l-0.00236221 0c-3.24803,2.02677 -4.25197,6.33898 -2.2252,9.58938l1.11024 1.78347c-2.96103,1.67008 -5.97874,3.24803 -9.05198,4.73032l-0.830316 -1.94055c-1.50473,-3.51851 -5.61615,-5.16851 -9.1382,-3.66378l-0.00236221 0c-3.51851,1.50827 -5.16851,5.61733 -3.66142,9.1382l0.83504 1.95354c-3.17717,1.19646 -6.4063,2.28425 -9.67678,3.27638l-0.525591 -2.04803c-0.950788,-3.7063 -4.76221,-5.96457 -8.47087,-5.01378l-0.00236221 -0.0011811c-3.70866,0.95315 -5.96575,4.76221 -5.0126,8.47205l0.520867 2.0374c-2.14843,0.448819 -4.30985,0.858662 -6.49016,1.2189l-0.252756 -2.08583c-0.461811,-3.80079 -3.94843,-6.53386 -7.74922,-6.07205l-0.00236221 0.0011811c-3.80079,0.461811 -6.53268,3.94725 -6.07205,7.74922l0.251575 2.06339c-1.69606,0.12874 -3.39685,0.239764 -5.10709,0.314173l0 -2.08465c0,-3.82914 -3.13229,-6.96142 -6.96024,-6.96142l-0.00236221 0c-3.82914,0 -6.96142,3.13229 -6.96142,6.96142l0 2.08465c-2.46969,-0.10748 -4.92402,-0.276378 -7.36418,-0.496063l0.281103 -2.06811c0.516142,-3.7937 -2.16614,-7.3193 -5.95867,-7.83544l-0.00236221 0c-3.7937,-0.516142 -7.3193,2.16614 -7.83426,5.95985l-0.283465 2.07756c-3.36733,-0.605906 -6.69922,-1.31457 -9.98977,-2.13071l0.601182 -2.02559c1.0878,-3.67087 -1.02402,-7.56379 -4.69607,-8.65276l-0.0011811 0c-3.67087,-1.08898 -7.56379,1.02402 -8.65158,4.69607l-0.602363 2.0315c-3.23032,-1.11496 -6.41103,-2.33622 -9.54213,-3.65079l0.902363 -1.90984c1.63583,-3.46181 0.141732,-7.63229 -3.32126,-9.26812l-0.0011811 -0.0011811c-3.46181,-1.63347 -7.63229,-0.13937 -9.26576,3.32362l-0.900001 1.90394c-3.01654,-1.59449 -5.97874,-3.27756 -8.87481,-5.05867l1.17756 -1.74449c2.14488,-3.17126 1.30394,-7.52008 -1.86851,-9.66497l0 -0.0011811c-3.17244,-2.14252 -7.52127,-1.30158 -9.66497,1.87087l-1.17047 1.73032c-2.73425,-2.03268 -5.39646,-4.15512 -7.99134,-6.35552l1.41378 -1.5248c2.60197,-2.80984 2.43307,-7.23426 -0.37441,-9.83859l0 -0.00236221c-2.80866,-2.60079 -7.23426,-2.43307 -9.83859,0.375591l-1.41142 1.52362c-2.39292,-2.42008 -4.70906,-4.91693 -6.94134,-7.48701l1.63465 -1.29567c3,-2.37874 3.50906,-6.77953 1.12913,-9.78072l0.0011811 -0.0011811c-2.37992,-3 -6.77835,-3.51024 -9.78072,-1.12913l-1.6441 1.30276c-1.99606,-2.75433 -3.89764,-5.57835 -5.71536,-8.4626l1.82599 -1.03937c3.32717,-1.89449 4.50237,-6.16536 2.60906,-9.49371l0 -0.00236221c-1.89449,-3.32717 -6.16418,-4.50118 -9.49371,-2.60669l-1.83662 1.0441c-1.55079,-3.02362 -3.00945,-6.10394 -4.36654,-9.23505l1.98425 -0.755906c3.57638,-1.36417 5.39056,-5.40709 4.02638,-8.98465l0 -0.00236221c-1.36417,-3.57756 -5.40473,-5.38937 -8.98465,-4.02284l-1.99016 0.757087c-1.06772,-3.22087 -2.02559,-6.49016 -2.88662,-9.79961l2.07166 -0.444095c3.74174,-0.80315 6.15119,-4.52244 5.34922,-8.26536l0.0011811 -0.00354331c-0.80315,-3.74292 -4.52008,-6.15 -8.26654,-5.34567l-2.05984 0.440552c-0.559843,-3.34016 -1.01457,-6.71575 -1.36181,-10.1232l2.09528 -0.121654c3.82205,-0.222047 6.7689,-3.53032 6.54686,-7.35237l0 -0.00236221c-0.222047,-3.82205 -3.52677,-6.76772 -7.35355,-6.54331l-2.0752 0.119291c-0.00944883,-0.722835 -0.0259843,-1.44449 -0.0259843,-2.16969 0,-2.69764 0.0696851,-5.37756 0.20315,-8.04095l2.08465 0.198425c3.80906,0.36378 7.22717,-2.45669 7.58977,-6.26693l0.0011811 -0.00236221c0.36378,-3.81142 -2.45433,-7.22599 -6.27048,-7.58859l-2.08937 -0.199606c0.472441,-3.39213 1.04882,-6.75001 1.73268,-10.0689l2.0504 0.519685c3.70866,0.940158 7.51654,-1.32638 8.4567,-5.03741l0.0011811 -0.0011811c0.940158,-3.71221 -1.32402,-7.51654 -5.03977,-8.4567l-2.06339 -0.52441c0.983859,-3.27402 2.07756,-6.50079 3.26575,-9.6815l1.95591 0.829134c3.52323,1.49528 7.63111,-0.162992 9.12757,-3.68859l0.0011811 -0.0011811c1.49528,-3.52441 -0.161811,-7.62993 -3.69095,-9.1252l-1.94764 -0.826772c1.47284,-3.07914 3.03898,-6.1063 4.70079,-9.07087l1.79764 1.11142c3.25394,2.01614 7.56733,1.00158 9.58347,-2.25236l0.0011811 -0.0011811c2.01378,-3.2563 1.00394,-7.56733 -2.25591,-9.58229l-1.78583 -1.10669c1.92402,-2.81457 3.94016,-5.55827 6.0378,-8.2382l1.58504 1.35591c2.90788,2.4874 7.3252,2.1437 9.81379,-0.765355l0.00236221 -0.0011811c2.4874,-2.91024 2.14606,-7.32638 -0.768898,-9.81497l-1.57795 -1.35c2.32559,-2.48622 4.72914,-4.9004 7.20945,-7.2319l1.35591 1.57795c2.49449,2.90079 6.913,3.23622 9.81615,0.739371l0.0011811 0c2.90315,-2.49803 3.2374,-6.913 0.73819,-9.81851l-1.36299 -1.58504c2.67284,-2.10473 5.42126,-4.11733 8.22993,-6.04725l1.10787 1.77638c2.02323,3.24803 6.3378,4.25079 9.5882,2.22756l0.0011811 0c3.24803,-2.02677 4.25315,-6.33898 2.22638,-9.58938l-1.11142 -1.78347c2.95984,-1.67008 5.97874,-3.24922 9.05316,-4.73032l0.830316 1.94055c1.50354,3.51851 5.61615,5.16851 9.1382,3.66378l0.0011811 0c3.51969,-1.50827 5.16969,-5.61733 3.6626,-9.1382l-0.83504 -1.95354c3.17717,-1.19646 6.40512,-2.28425 9.67678,-3.27638l0.525591 2.04803c0.949607,3.7063 4.76221,5.96457 8.47087,5.01378l0.0011811 0.0011811c3.70866,-0.95315 5.96693,-4.76221 5.01378,-8.47205l-0.522048 -2.0374c2.14961,-0.448819 4.31103,-0.859843 6.49016,-1.2189l0.253937 2.08583c0.461811,3.80079 3.94725,6.53386 7.74922,6.07205l0.0011811 -0.0011811c3.80079,-0.461811 6.53386,-3.94725 6.07205,-7.74922l-0.250394 -2.06339c1.69488,-0.127559 3.39685,-0.239764 5.10591,-0.314173l0 2.08465c0,3.82914 3.13229,6.96142 6.96142,6.96142l0.00236221 0c3.82796,0 6.96024,-3.13229 6.96024,-6.96142l0 -2.08465zm-6.96142 127.022c16.8567,0 30.5209,13.6642 30.5209,30.5209 0,16.8567 -13.6642,30.5209 -30.5209,30.5209 -16.8567,0 -30.5209,-13.6642 -30.5209,-30.5209 0,-16.8567 13.6642,-30.5209 30.5209,-30.5209z"/>
    <path id="_420253568" class="fil12" d="M1584 990.786c15.5705,0 29.6681,6.31182 39.8705,16.5154 10.2036,10.2036 16.5165,24.3012 16.5165,39.8717 0,15.5693 -6.31182,29.667 -16.5165,39.8717 -10.2024,10.2036 -24.3,16.5154 -39.8705,16.5154 -15.5693,0 -29.667,-6.31182 -39.8717,-16.5154 -10.2047,-10.2047 -16.5154,-24.3024 -16.5154,-39.8717 0,-15.5705 6.31182,-29.6681 16.5154,-39.8717 10.2047,-10.2036 24.3024,-16.5154 39.8717,-16.5154zm31.102 25.2851c-7.95827,-7.95827 -18.9543,-12.8823 -31.102,-12.8823 -12.1465,0 -23.1437,4.92284 -31.1032,12.8823 -7.95709,7.95709 -12.8811,18.9543 -12.8811,31.102 0,12.1465 4.92284,23.1437 12.8811,31.102 7.95945,7.95945 18.9567,12.8823 31.1032,12.8823 12.1476,0 23.1437,-4.92402 31.102,-12.8823 7.95827,-7.95827 12.8823,-18.9555 12.8823,-31.102 0,-12.1476 -4.92402,-23.1449 -12.8823,-31.102z"/>
    <path id="_420253664" class="fil13" d="M1584 903.347c39.7158,0 75.6733,16.0984 101.7,42.1252 26.028,26.0268 42.1264,61.9855 42.1264,101.701 0,39.7158 -16.0984,75.6745 -42.1264,101.701 -26.0268,26.0268 -61.9843,42.1252 -101.7,42.1252 -39.717,0 -75.6745,-16.0984 -101.701,-42.1252 -26.0268,-26.0268 -42.1252,-61.9843 -42.1252,-101.701 0,-39.717 16.0984,-75.6745 42.1252,-101.701 26.0268,-26.0268 61.9855,-42.1252 101.701,-42.1252zm96.3083 47.517c-24.6449,-24.6461 -58.6961,-39.8906 -96.3083,-39.8906 -37.6134,0 -71.6634,15.2445 -96.3095,39.8906 -24.6449,24.6461 -39.8906,58.6973 -39.8906,96.3095 0,37.6122 15.2457,71.6634 39.8906,96.3095 24.6449,24.6449 58.6973,39.8906 96.3095,39.8906 37.6111,0 71.6634,-15.2457 96.3083,-39.8906 24.6473,-24.6461 39.8906,-58.6973 39.8906,-96.3095 0,-37.6122 -15.2433,-71.6634 -39.8906,-96.3095z"/>
    <path id="_420252656" class="fil14" d="M1583.89 1019.44l12.0106 6.93426 12.0095 6.93426 0 13.8673 0 13.8673 -12.0095 6.93426 -12.0106 6.93426 -12.0106 -6.93426 -12.0095 -6.93426 0 -13.8673 0 -13.8673 12.0095 -6.93426 12.0106 -6.93426zm0 15.8988c6.53623,0 11.837,5.30079 11.837,11.837 0,6.53741 -5.30079,11.837 -11.837,11.837 -6.53623,0 -11.837,-5.29961 -11.837,-11.837 0,-6.53623 5.30079,-11.837 11.837,-11.837z"/>
   </g>
  </g>
 </g>
 <rect class="fil15" width="2048" height="2048"/>
</svg>
