<?xml version="1.0" encoding="iso-8859-1"?>
<!-- Uploaded to: SVG Repo, www.svgrepo.com, Generator: SVG Repo Mixer Tools -->
<svg fill="#000000" height="800px" width="800px" version="1.1" id="Layer_1" xmlns="http://www.w3.org/2000/svg" xmlns:xlink="http://www.w3.org/1999/xlink" 
	 viewBox="0 0 512 512" xml:space="preserve">
<g>
	<g>
		<path d="M495.297,22.27H194.786c-7.661,0-14.339,5.214-16.196,12.646l-5.187,20.744H16.706c-11.382,0-19.44,11.169-15.838,21.974
			l32.533,97.6v264.41c0,27.617,22.468,50.085,50.085,50.085c3.337,0,341.592,0,345.031,0c27.617,0,50.085-22.468,50.085-50.085
			V174.579l32.891-131.565C514.13,32.475,506.14,22.27,495.297,22.27z M144.701,456.341H83.486c-9.206,0-16.695-7.489-16.695-16.695
			V189.22h77.91V456.341z M148.362,155.83H62.13L39.87,89.05h125.187L148.362,155.83z M445.212,439.646
			c0,9.206-7.489,16.695-16.695,16.695H178.091V189.22h267.121V439.646z M448.871,155.83H182.779l25.043-100.17h266.092
			L448.871,155.83z"/>
	</g>
</g>
<g>
	<g>
		<path d="M395.127,389.561h-166.95c-9.22,0-16.695,7.475-16.695,16.695s7.475,16.695,16.695,16.695h166.95
			c9.22,0,16.695-7.475,16.695-16.695S404.347,389.561,395.127,389.561z"/>
	</g>
</g>
<g>
	<g>
		<path d="M406.936,260.89l-33.388-33.387c-6.517-6.524-17.13-6.492-23.616,0l-33.388,33.387c-3.259,3.259-4.888,7.528-4.891,11.799
			c-0.001-4.271-1.632-8.541-4.891-11.799l-33.388-33.387c-6.497-6.503-17.102-6.52-23.616,0l-33.388,33.387
			c-6.52,6.52-6.52,17.09,0,23.61c6.519,6.52,17.09,6.52,23.61,0l4.891-4.889v59.865c0,9.22,7.475,16.695,16.695,16.695
			c9.22,0,16.695-7.475,16.695-16.695v-59.865l4.891,4.889c6.519,6.52,17.09,6.521,23.61,0c3.259-3.259,4.888-7.528,4.891-11.799
			c0.001,4.271,1.632,8.541,4.891,11.799c6.519,6.52,17.09,6.52,23.61,0l4.891-4.889v59.865c0,9.22,7.475,16.695,16.695,16.695
			s16.695-7.475,16.695-16.695v-59.865l4.891,4.889c6.519,6.52,17.09,6.521,23.61,0C413.456,277.98,413.456,267.41,406.936,260.89z"
			/>
	</g>
</g>
</svg>