<?xml version="1.0" encoding="iso-8859-1"?>
<!-- Uploaded to: SVG Repo, www.svgrepo.com, Generator: SVG Repo Mixer Tools -->
<svg height="800px" width="800px" version="1.1" id="Layer_1" xmlns="http://www.w3.org/2000/svg" xmlns:xlink="http://www.w3.org/1999/xlink" 
	 viewBox="0 0 512 512" xml:space="preserve">
<g>
	<path style="fill:#434A54;" d="M298.688,307.094c-5.906,0-10.688,4.781-10.688,10.672v85.328c0,5.891,4.781,10.672,10.688,10.672
		c5.875,0,10.656-4.781,10.656-10.672v-85.328C309.344,311.875,304.562,307.094,298.688,307.094z"/>
	<path style="fill:#434A54;" d="M216.656,305.047l-73.906-42.672c-5.094-2.938-11.625-1.188-14.562,3.906
		c-2.938,5.109-1.188,11.625,3.906,14.578L206,323.531c5.094,2.938,11.625,1.188,14.562-3.906
		C223.5,314.516,221.781,308,216.656,305.047z"/>
</g>
<path style="fill:#CCD1D9;" d="M387.25,215.031V75.766L256,0L124.75,75.766v139.266L4.156,284.656v151.562L135.406,512L256,442.375
	L376.594,512l131.25-75.781V284.656L387.25,215.031z M146.094,88.094L256,24.625l109.938,63.469v126.922L256,278.469
	l-109.906-63.453V88.094z M25.5,423.891V296.969l109.906-63.453l109.938,63.453v126.922L135.406,487.36L25.5,423.891z
	 M486.5,423.891L376.594,487.36l-109.906-63.469V296.969l109.906-63.453L486.5,296.969V423.891z"/>
<path style="fill:#434A54;" d="M248.656,53.5L174.75,96.172c-5.094,2.938-6.844,9.469-3.906,14.562
	c2.969,5.109,9.5,6.859,14.594,3.906l73.906-42.672c5.094-2.938,6.844-9.469,3.906-14.562
	C260.281,52.297,253.781,50.547,248.656,53.5z"/>
</svg>