<?xml version="1.0" encoding="iso-8859-1"?>
<!-- Generator: Adobe Illustrator 19.0.0, SVG Export Plug-In . SVG Version: 6.00 Build 0)  -->
<svg version="1.1" id="Layer_1" xmlns="http://www.w3.org/2000/svg" xmlns:xlink="http://www.w3.org/1999/xlink" x="0px" y="0px"
	 viewBox="0 0 512 512" style="enable-background:new 0 0 512 512;" xml:space="preserve">
<rect x="62.974" y="57.905" style="fill:#79AEE2;" width="385.757" height="258.115"/>
<g>
	<rect x="330.002" y="57.905" style="fill:#A8D2F4;" width="56.871" height="258.115"/>
	<rect x="404.04" y="57.905" style="fill:#A8D2F4;" width="19.855" height="258.115"/>
	<rect x="120.286" y="57.905" style="fill:#A8D2F4;" width="19.855" height="258.115"/>
</g>
<g>
	<rect x="62.974" y="10.225" style="fill:#2FCCC4;" width="385.757" height="49.445"/>
	<rect x="62.974" y="314.257" style="fill:#2FCCC4;" width="385.757" height="186.815"/>
</g>
<g>
	<rect x="62.974" y="10.225" style="fill:#1DB2A7;" width="26.027" height="49.445"/>
	<rect x="62.974" y="314.257" style="fill:#1DB2A7;" width="26.027" height="186.815"/>
</g>
<g>
	<rect x="358.214" y="349.508" style="fill:#FCD559;" width="56.398" height="116.326"/>
	<rect x="194.3" y="349.508" style="fill:#FCD559;" width="56.398" height="56.398"/>
	<rect x="106.186" y="349.508" style="fill:#FCD559;" width="56.398" height="56.398"/>
</g>
<path d="M448.878,0H63.122c-4.867,0-8.813,3.946-8.813,8.813v494.375c0,4.867,3.946,8.813,8.813,8.813h385.757
	c4.867,0,8.813-3.946,8.813-8.813V8.813C457.691,3.946,453.745,0,448.878,0z M71.934,494.375v-169.19h58.339
	c4.867,0,8.813-3.946,8.813-8.813c0-4.867-3.946-8.813-8.813-8.813H71.934V67.07h175.248v49.497
	c-15.186,3.923-26.437,17.739-26.437,34.133c0,13.769,7.94,25.71,19.476,31.509l-46.311,46.311
	c-3.442,3.44-3.442,9.019-0.001,12.461l33.704,33.719c3.442,3.443,9.021,3.443,12.463,0.002c3.443-3.442,3.444-9.021,0.002-12.463
	l-27.475-27.488l43.39-43.39l43.391,43.39l-27.475,27.488c-3.44,3.443-3.439,9.022,0.002,12.463c1.72,1.719,3.975,2.579,6.23,2.579
	c2.256,0,4.512-0.861,6.233-2.583l33.704-33.719c3.44-3.442,3.439-9.021-0.001-12.461l-46.311-46.311
	c11.536-5.799,19.476-17.74,19.476-31.509c0-16.394-11.251-30.21-26.437-34.133V67.07h51.117c4.867,0,8.813-3.946,8.813-8.813
	s-3.946-8.813-8.813-8.813H71.934V17.625h368.131v31.819h-90.065c-4.867,0-8.813,3.946-8.813,8.813s3.946,8.813,8.813,8.813h90.065
	v240.49H164.349c-4.867,0-8.813,3.946-8.813,8.813c0,4.867,3.946,8.813,8.813,8.813h275.717v169.19H71.934z M255.997,168.323
	c-9.717,0-17.624-7.907-17.624-17.624c0-9.717,7.907-17.624,17.624-17.624c9.719,0,17.624,7.907,17.624,17.624
	C273.621,160.417,265.714,168.323,255.997,168.323z"/>
<path d="M414.756,342.804h-56.398c-4.867,0-8.813,3.946-8.813,8.813v116.32c0,4.867,3.946,8.813,8.813,8.813h56.398
	c4.867,0,8.813-3.946,8.813-8.813v-60.043c0-4.867-3.946-8.813-8.813-8.813c-4.867,0-8.813,3.946-8.813,8.813v51.231H367.17v-98.695
	h38.773v16.914c0,4.867,3.946,8.813,8.813,8.813c4.867,0,8.813-3.946,8.813-8.813v-25.727
	C423.569,346.75,419.624,342.804,414.756,342.804z"/>
<path d="M377.744,382.46v54.636c0,4.867,3.946,8.813,8.813,8.813c4.867,0,8.813-3.946,8.813-8.813V382.46
	c0-4.867-3.946-8.813-8.813-8.813C381.69,373.647,377.744,377.593,377.744,382.46z"/>
<path d="M250.85,342.804h-56.397c-4.867,0-8.813,3.946-8.813,8.813v56.398c0,4.867,3.946,8.813,8.813,8.813h56.398
	c4.867,0,8.813-3.946,8.813-8.813v-56.398C259.663,346.75,255.717,342.804,250.85,342.804z M242.037,399.202h-38.772v-38.773h38.773
	v38.773H242.037z"/>
<path d="M162.729,342.804h-56.397c-4.867,0-8.813,3.946-8.813,8.813v56.398c0,4.867,3.946,8.813,8.813,8.813h56.398
	c4.867,0,8.813-3.946,8.813-8.813v-56.398C171.541,346.75,167.596,342.804,162.729,342.804z M153.916,399.202h-38.772v-38.773
	h38.773v38.773H153.916z"/>
<g>
</g>
<g>
</g>
<g>
</g>
<g>
</g>
<g>
</g>
<g>
</g>
<g>
</g>
<g>
</g>
<g>
</g>
<g>
</g>
<g>
</g>
<g>
</g>
<g>
</g>
<g>
</g>
<g>
</g>
</svg>
