<?xml version="1.0" encoding="utf-8"?>
<!-- Generator: Adobe Illustrator 16.0.0, SVG Export Plug-In . SVG Version: 6.00 Build 0)  -->
<!DOCTYPE svg PUBLIC "-//W3C//DTD SVG 1.1//EN" "http://www.w3.org/Graphics/SVG/1.1/DTD/svg11.dtd">
<svg version="1.1" id="Слой_1" xmlns="http://www.w3.org/2000/svg" xmlns:xlink="http://www.w3.org/1999/xlink" x="0px" y="0px"
	 width="512px" height="512px" viewBox="0 0 512 512" enable-background="new 0 0 512 512" xml:space="preserve">
<g id="_x31_3_factory_x2C__production_x2C__building_x2C__architecture_x2C__pipe_1_">
	<g>
		<g>
			<polygon fill="#CCD1D9" points="212.631,212.012 163.388,212.012 172.012,92.03 204.008,92.03 			"/>
		</g>
	</g>
	<g opacity="0.5">
		<g>
			<polygon fill="#FFFFFF" points="172.168,92.03 163.544,212.012 171.543,212.012 180.168,92.03 			"/>
		</g>
	</g>
	<g opacity="0.2">
		<g>
			<polygon points="203.852,92.03 212.475,212.012 204.477,212.012 195.853,92.03 			"/>
		</g>
	</g>
	<g>
		<g>
			<polygon fill="#656D78" points="165.115,188.016 210.904,188.016 209.757,172.018 166.263,172.018 			"/>
		</g>
	</g>
	<g>
		<g>
			<polygon fill="#656D78" points="168.563,140.022 207.457,140.022 206.309,124.025 169.712,124.025 			"/>
		</g>
	</g>
	<g>
		<g>
			<polygon fill="#CCD1D9" points="132.643,212.012 83.4,212.012 92.024,92.03 124.019,92.03 			"/>
		</g>
	</g>
	<g opacity="0.2">
		<g>
			<polygon points="123.707,92.03 132.331,212.012 124.332,212.012 115.708,92.03 			"/>
		</g>
	</g>
	<g opacity="0.5">
		<g>
			<polygon fill="#FFFFFF" points="92.024,92.03 83.4,212.012 91.399,212.012 100.023,92.03 			"/>
		</g>
	</g>
	<g>
		<g>
			<path fill="#656D78" d="M403.979,260.006h-31.996v15.993h31.996c8.834,0,15.998,7.163,15.998,15.997v8h15.996v-8
				C435.973,274.319,421.656,260.006,403.979,260.006z"/>
		</g>
	</g>
	<g opacity="0.2">
		<g>
			<path d="M403.979,260.006h-8c17.678,0,31.996,14.313,31.996,31.99l0,0h7.998l0,0
				C435.973,274.319,421.656,260.006,403.979,260.006z"/>
		</g>
	</g>
	<g>
		<g>
			<rect x="4.037" y="260.006" fill="#E6E9ED" width="255.963" height="159.973"/>
		</g>
	</g>
	<g>
		<g>
			<rect x="371.982" y="299.996" fill="#E6E9ED" width="135.98" height="119.982"/>
		</g>
	</g>
	<g>
		<g>
			<polygon fill="#FC6E51" points="260,212.012 52.03,212.012 4.037,260.006 260,260.006 			"/>
		</g>
	</g>
	<g opacity="0.3">
		<g>
			<polygon fill="#FFFFFF" points="52.03,212.012 4.037,260.006 12.036,260.006 60.029,212.012 			"/>
		</g>
	</g>
	<g>
		<g>
			<rect x="260" y="164.02" fill="#5D9CEC" width="31.994" height="255.959"/>
		</g>
	</g>
	<g>
		<g>
			<rect x="339.988" y="164.02" fill="#5D9CEC" width="31.994" height="255.959"/>
		</g>
	</g>
	<g>
		<g>
			<rect x="36.032" y="291.996" fill="#5D9CEC" width="191.972" height="95.986"/>
		</g>
	</g>
	<g opacity="0.3">
		<g>
			<polygon fill="#FFFFFF" points="44.031,316.001 44.031,291.996 36.032,291.996 36.032,316.001 36.032,323.992 44.031,323.992 
				68.027,323.992 68.027,316.001 			"/>
		</g>
	</g>
	<g opacity="0.3">
		<g>
			<polygon fill="#FFFFFF" points="76.026,316.001 76.026,291.996 68.027,291.996 68.027,316.001 68.027,323.992 76.026,323.992 
				100.023,323.992 100.023,316.001 			"/>
		</g>
	</g>
	<g opacity="0.3">
		<g>
			<polygon fill="#FFFFFF" points="108.021,316.001 108.021,291.996 100.023,291.996 100.023,316.001 100.023,323.992 
				108.021,323.992 132.018,323.992 132.018,316.001 			"/>
		</g>
	</g>
	<g opacity="0.3">
		<g>
			<polygon fill="#FFFFFF" points="267.998,316.001 267.998,291.996 260.004,291.996 260.004,316.001 260.004,323.992 
				267.998,323.992 291.994,323.992 291.994,316.001 			"/>
		</g>
	</g>
	<g opacity="0.3">
		<g>
			<polygon fill="#FFFFFF" points="267.998,284.006 267.998,260.006 260.004,260.006 260.004,284.006 260.004,291.996 
				267.998,291.996 291.994,291.996 291.994,284.006 			"/>
		</g>
	</g>
	<g opacity="0.3">
		<g>
			<polygon fill="#FFFFFF" points="267.998,252.015 267.998,228.01 260.004,228.01 260.004,252.015 260.004,260.006 
				267.998,260.006 291.994,260.006 291.994,252.015 			"/>
		</g>
	</g>
	<g opacity="0.3">
		<g>
			<polygon fill="#FFFFFF" points="267.998,220.019 267.998,196.015 260.004,196.015 260.004,220.019 260.004,228.01 
				267.998,228.01 291.994,228.01 291.994,220.019 			"/>
		</g>
	</g>
	<g opacity="0.3">
		<g>
			<polygon fill="#FFFFFF" points="267.998,188.023 267.998,164.02 260.004,164.02 260.004,188.023 260.004,196.015 
				267.998,196.015 291.994,196.015 291.994,188.023 			"/>
		</g>
	</g>
	<g opacity="0.3">
		<g>
			<polygon fill="#FFFFFF" points="267.998,347.996 267.998,323.992 260.004,323.992 260.004,347.996 260.004,355.987 
				267.998,355.987 291.994,355.987 291.994,347.996 			"/>
		</g>
	</g>
	<g opacity="0.3">
		<g>
			<polygon fill="#FFFFFF" points="267.998,379.992 267.998,355.987 260.004,355.987 260.004,379.992 260.004,387.982 
				267.998,387.982 291.994,387.982 291.994,379.992 			"/>
		</g>
	</g>
	<g opacity="0.3">
		<g>
			<polygon fill="#FFFFFF" points="267.998,411.987 267.998,387.982 260.004,387.982 260.004,411.987 260.004,419.979 
				267.998,419.979 291.994,419.979 291.994,411.987 			"/>
		</g>
	</g>
	<g opacity="0.3">
		<g>
			<polygon fill="#FFFFFF" points="347.986,316.001 347.986,291.996 339.988,291.996 339.988,316.001 339.988,323.992 
				347.986,323.992 371.982,323.992 371.982,316.001 			"/>
		</g>
	</g>
	<g opacity="0.3">
		<g>
			<polygon fill="#FFFFFF" points="347.986,284.006 347.986,260.006 339.988,260.006 339.988,284.006 339.988,291.996 
				347.986,291.996 371.982,291.996 371.982,284.006 			"/>
		</g>
	</g>
	<g opacity="0.3">
		<g>
			<polygon fill="#FFFFFF" points="347.986,252.015 347.986,228.01 339.988,228.01 339.988,252.015 339.988,260.006 
				347.986,260.006 371.982,260.006 371.982,252.015 			"/>
		</g>
	</g>
	<g opacity="0.3">
		<g>
			<polygon fill="#FFFFFF" points="347.986,220.019 347.986,196.015 339.988,196.015 339.988,220.019 339.988,228.01 
				347.986,228.01 371.982,228.01 371.982,220.019 			"/>
		</g>
	</g>
	<g opacity="0.3">
		<g>
			<polygon fill="#FFFFFF" points="347.986,188.023 347.986,164.02 339.988,164.02 339.988,188.023 339.988,196.015 
				347.986,196.015 371.982,196.015 371.982,188.023 			"/>
		</g>
	</g>
	<g opacity="0.3">
		<g>
			<polygon fill="#FFFFFF" points="347.986,347.996 347.986,323.992 339.988,323.992 339.988,347.996 339.988,355.987 
				347.986,355.987 371.982,355.987 371.982,347.996 			"/>
		</g>
	</g>
	<g opacity="0.3">
		<g>
			<polygon fill="#FFFFFF" points="347.986,379.992 347.986,355.987 339.988,355.987 339.988,379.992 339.988,387.982 
				347.986,387.982 371.982,387.982 371.982,379.992 			"/>
		</g>
	</g>
	<g opacity="0.3">
		<g>
			<polygon fill="#FFFFFF" points="347.986,411.987 347.986,387.982 339.988,387.982 339.988,411.987 339.988,419.979 
				347.986,419.979 371.982,419.979 371.982,411.987 			"/>
		</g>
	</g>
	<g opacity="0.3">
		<g>
			<polygon fill="#FFFFFF" points="140.017,316.001 140.017,291.996 132.018,291.996 132.018,316.001 132.018,323.992 
				140.017,323.992 164.013,323.992 164.013,316.001 			"/>
		</g>
	</g>
	<g opacity="0.3">
		<g>
			<polygon fill="#FFFFFF" points="172.012,316.001 172.012,291.996 164.013,291.996 164.013,316.001 164.013,323.992 
				172.012,323.992 196.009,323.992 196.009,316.001 			"/>
		</g>
	</g>
	<g opacity="0.3">
		<g>
			<polygon fill="#FFFFFF" points="204.008,316.001 204.008,291.996 196.009,291.996 196.009,316.001 196.009,323.992 
				204.008,323.992 228.004,323.992 228.004,316.001 			"/>
		</g>
	</g>
	<g opacity="0.3">
		<g>
			<polygon fill="#FFFFFF" points="44.031,347.996 44.031,323.992 36.032,323.992 36.032,347.996 36.032,355.987 44.031,355.987 
				68.027,355.987 68.027,347.996 			"/>
		</g>
	</g>
	<g opacity="0.3">
		<g>
			<polygon fill="#FFFFFF" points="76.026,347.996 76.026,323.992 68.027,323.992 68.027,347.996 68.027,355.987 76.026,355.987 
				100.023,355.987 100.023,347.996 			"/>
		</g>
	</g>
	<g opacity="0.3">
		<g>
			<polygon fill="#FFFFFF" points="108.021,347.996 108.021,323.992 100.023,323.992 100.023,347.996 100.023,355.987 
				108.021,355.987 132.018,355.987 132.018,347.996 			"/>
		</g>
	</g>
	<g opacity="0.3">
		<g>
			<polygon fill="#FFFFFF" points="140.017,347.996 140.017,323.992 132.018,323.992 132.018,347.996 132.018,355.987 
				140.017,355.987 164.013,355.987 164.013,347.996 			"/>
		</g>
	</g>
	<g opacity="0.3">
		<g>
			<polygon fill="#FFFFFF" points="172.012,347.996 172.012,323.992 164.013,323.992 164.013,347.996 164.013,355.987 
				172.012,355.987 196.009,355.987 196.009,347.996 			"/>
		</g>
	</g>
	<g opacity="0.3">
		<g>
			<polygon fill="#FFFFFF" points="204.008,347.996 204.008,323.992 196.009,323.992 196.009,347.996 196.009,355.987 
				204.008,355.987 228.004,355.987 228.004,347.996 			"/>
		</g>
	</g>
	<g opacity="0.3">
		<g>
			<polygon fill="#FFFFFF" points="44.031,379.992 44.031,355.987 36.032,355.987 36.032,379.992 36.032,387.982 44.031,387.982 
				68.027,387.982 68.027,379.992 			"/>
		</g>
	</g>
	<g opacity="0.3">
		<g>
			<polygon fill="#FFFFFF" points="76.026,379.992 76.026,355.987 68.027,355.987 68.027,379.992 68.027,387.982 76.026,387.982 
				100.023,387.982 100.023,379.992 			"/>
		</g>
	</g>
	<g opacity="0.3">
		<g>
			<polygon fill="#FFFFFF" points="108.021,379.992 108.021,355.987 100.023,355.987 100.023,379.992 100.023,387.982 
				108.021,387.982 132.018,387.982 132.018,379.992 			"/>
		</g>
	</g>
	<g opacity="0.3">
		<g>
			<polygon fill="#FFFFFF" points="140.017,379.992 140.017,355.987 132.018,355.987 132.018,379.992 132.018,387.982 
				140.017,387.982 164.013,387.982 164.013,379.992 			"/>
		</g>
	</g>
	<g opacity="0.3">
		<g>
			<polygon fill="#FFFFFF" points="172.012,379.992 172.012,355.987 164.013,355.987 164.013,379.992 164.013,387.982 
				172.012,387.982 196.009,387.982 196.009,379.992 			"/>
		</g>
	</g>
	<g opacity="0.3">
		<g>
			<polygon fill="#FFFFFF" points="204.008,379.992 204.008,355.987 196.009,355.987 196.009,379.992 196.009,387.982 
				204.008,387.982 228.004,387.982 228.004,379.992 			"/>
		</g>
	</g>
	<g>
		<g>
			<rect x="291.994" y="148.021" fill="#E6E9ED" width="47.994" height="271.957"/>
		</g>
	</g>
	<g>
		<g>
			<rect x="403.979" y="371.985" fill="#FC6E51" width="71.988" height="47.993"/>
		</g>
	</g>
	<g>
		<g>
			<path fill="#5D9CEC" d="M451.971,323.992h-23.996c-4.422,0-7.998,3.577-7.998,7.998c0,4.422,3.576,8,7.998,8h23.996
				c4.422,0,8-3.578,8-8C459.971,327.569,456.393,323.992,451.971,323.992z"/>
		</g>
	</g>
	<g opacity="0.3">
		<g>
			<path fill="#FFFFFF" d="M427.975,331.99c0-4.421,3.578-7.998,7.998-7.998h-7.998c-4.422,0-7.998,3.577-7.998,7.998
				c0,4.422,3.576,8,7.998,8h7.998C431.553,339.99,427.975,336.412,427.975,331.99z"/>
		</g>
	</g>
	<g opacity="0.2">
		<g>
			<path d="M451.971,331.99c0,4.422-3.576,8-7.998,8h7.998c4.422,0,8-3.578,8-8c0-4.421-3.578-7.998-8-7.998h-7.998
				C448.395,323.992,451.971,327.569,451.971,331.99z"/>
		</g>
	</g>
	<g>
		<g>
			<rect x="459.971" y="285.662" fill="#656D78" width="31.994" height="14.334"/>
		</g>
	</g>
	<g>
		<g>
			<polygon fill="#656D78" points="85.126,188.016 130.917,188.016 129.768,172.018 86.275,172.018 			"/>
		</g>
	</g>
	<g>
		<g>
			<polygon fill="#656D78" points="88.575,140.022 127.468,140.022 126.32,124.025 89.723,124.025 			"/>
		</g>
	</g>
	<g opacity="0.2">
		<g>
			<polygon fill="#FFFFFF" points="93.125,188.016 94.274,172.018 86.275,172.018 85.126,188.016 			"/>
		</g>
	</g>
	<g opacity="0.2">
		<g>
			<polygon fill="#FFFFFF" points="97.722,124.025 89.723,124.025 89.149,132.024 88.575,140.022 96.574,140.022 			"/>
		</g>
	</g>
	<g opacity="0.2">
		<g>
			<polygon points="122.605,188.016 121.457,172.018 129.456,172.018 130.604,188.016 			"/>
		</g>
	</g>
	<g opacity="0.2">
		<g>
			<polygon points="118.008,124.025 126.007,124.025 126.582,132.024 127.156,140.022 119.157,140.022 			"/>
		</g>
	</g>
	<g opacity="0.2">
		<g>
			<polygon fill="#FFFFFF" points="173.27,188.016 174.418,172.018 166.419,172.018 165.271,188.016 			"/>
		</g>
	</g>
	<g opacity="0.2">
		<g>
			<polygon fill="#FFFFFF" points="177.867,124.025 169.867,124.025 169.294,132.024 168.72,140.022 176.719,140.022 			"/>
		</g>
	</g>
	<g opacity="0.2">
		<g>
			<polygon points="202.75,188.016 201.602,172.018 209.601,172.018 210.748,188.016 			"/>
		</g>
	</g>
	<g opacity="0.2">
		<g>
			<polygon points="198.152,124.025 206.152,124.025 206.727,132.024 207.301,140.022 199.301,140.022 			"/>
		</g>
	</g>
	<g>
		<g>
			<rect x="4.037" y="260.006" fill="#FFFFFF" width="7.999" height="162.472"/>
		</g>
	</g>
	<g>
		<g>
			<rect x="291.994" y="148.021" fill="#FFFFFF" width="8" height="274.456"/>
		</g>
	</g>
	<g opacity="0.2">
		<g>
			<rect x="331.988" y="148.021" width="8" height="274.456"/>
		</g>
	</g>
	<g opacity="0.2">
		<g>
			<rect x="499.965" y="299.996" width="7.998" height="122.481"/>
		</g>
	</g>
	<g opacity="0.2">
		<g>
			<rect x="371.982" y="299.996" width="8" height="122.481"/>
		</g>
	</g>
	<g opacity="0.2">
		<g>
			<rect x="252" y="212.012" width="8" height="210.465"/>
		</g>
	</g>
	<g opacity="0.2">
		<g>
			<rect x="371.982" y="260.006" width="8" height="15.993"/>
		</g>
	</g>
	<g opacity="0.2">
		<g>
			<rect x="419.977" y="291.996" width="15.996" height="8"/>
		</g>
	</g>
	<g opacity="0.2">
		<g>
			<rect x="459.979" y="293.66" width="31.994" height="7.999"/>
		</g>
	</g>
	<g opacity="0.3">
		<g>
			<rect x="403.979" y="371.985" fill="#FFFFFF" width="7.998" height="47.993"/>
		</g>
	</g>
	<g opacity="0.2">
		<g>
			<rect x="467.969" y="371.985" width="7.998" height="47.993"/>
		</g>
	</g>
	<g id="_x31_3_factory_x2C__production_x2C__building_x2C__architecture_x2C__pipe">
		<g>
			<g>
				<g>
					<path fill="#3A3847" d="M4.037,407.979c-2.21,0-3.999-1.788-3.999-3.999V260.006c0-2.211,1.789-4,3.999-4H252
						c2.211,0,4,1.789,4,4c0,2.21-1.789,3.995-4,3.995H8.036V403.98C8.036,406.191,6.248,407.979,4.037,407.979z"/>
				</g>
			</g>
			<g>
				<g>
					<path fill="#3A3847" d="M4.037,264.001c-1.023,0-2.046-0.387-2.828-1.168c-1.562-1.563-1.562-4.093,0-5.655l47.993-47.993
						c1.562-1.563,4.093-1.563,5.655,0s1.562,4.093,0,5.655L6.865,262.833C6.083,263.614,5.06,264.001,4.037,264.001z"/>
				</g>
			</g>
			<g>
				<g>
					<path fill="#3A3847" d="M339.988,423.978c-2.211,0-4-1.789-4-3.999V152.021h-39.994v267.958c0,2.21-1.789,3.999-4,3.999
						s-3.998-1.789-3.998-3.999V148.021c0-2.21,1.787-3.999,3.998-3.999h47.994c2.209,0,3.998,1.789,3.998,3.999v271.957
						C343.986,422.188,342.197,423.978,339.988,423.978z"/>
				</g>
			</g>
			<g>
				<g>
					<path fill="#3A3847" d="M252,216.012H52.03c-2.211,0-4-1.789-4-4s1.789-4,4-4H252c2.211,0,4,1.789,4,4
						S254.211,216.012,252,216.012z"/>
				</g>
			</g>
			<g>
				<g>
					<path fill="#3A3847" d="M507.963,407.979c-2.211,0-4-1.788-4-3.999v-99.985h-123.98c-2.211,0-4-1.789-4-3.999
						c0-2.211,1.789-4,4-4h127.98c2.211,0,4,1.789,4,4V403.98C511.963,406.191,510.174,407.979,507.963,407.979z"/>
				</g>
			</g>
			<g>
				<g>
					<path fill="#3A3847" d="M291.994,423.978c-2.211,0-3.998-1.789-3.998-3.999v-251.96h-23.998v251.96
						c0,2.21-1.789,3.999-3.998,3.999c-2.211,0-4-1.789-4-3.999V164.02c0-2.211,1.789-4,4-4h31.994c2.211,0,4,1.789,4,4v255.959
						C295.994,422.188,294.205,423.978,291.994,423.978z"/>
				</g>
			</g>
			<g>
				<g>
					<path fill="#3A3847" d="M371.982,423.978c-2.211,0-3.998-1.789-3.998-3.999v-251.96h-23.998v251.96
						c0,2.21-1.789,3.999-3.998,3.999c-2.211,0-4-1.789-4-3.999V164.02c0-2.211,1.789-4,4-4h31.994c2.211,0,4,1.789,4,4v255.959
						C375.982,422.188,374.193,423.978,371.982,423.978z"/>
				</g>
			</g>
			<g>
				<g>
					<path fill="#3A3847" d="M283.996,200.014h-15.998c-2.211,0-4-1.788-4-3.999s1.789-4,4-4h15.998c2.211,0,4,1.789,4,4
						S286.207,200.014,283.996,200.014z"/>
				</g>
			</g>
			<g>
				<g>
					<path fill="#3A3847" d="M283.996,232.009h-15.998c-2.211,0-4-1.789-4-4c0-2.21,1.789-3.999,4-3.999h15.998
						c2.211,0,4,1.789,4,3.999C287.996,230.221,286.207,232.009,283.996,232.009z"/>
				</g>
			</g>
			<g>
				<g>
					<path fill="#3A3847" d="M283.996,264.001h-15.998c-2.211,0-4-1.785-4-3.995c0-2.211,1.789-4,4-4h15.998c2.211,0,4,1.789,4,4
						C287.996,262.216,286.207,264.001,283.996,264.001z"/>
				</g>
			</g>
			<g>
				<g>
					<path fill="#3A3847" d="M60.029,295.996H44.031c-2.21,0-3.999-1.789-3.999-4c0-2.21,1.789-3.999,3.999-3.999h15.998
						c2.21,0,3.999,1.789,3.999,3.999C64.028,294.207,62.239,295.996,60.029,295.996z"/>
				</g>
			</g>
			<g>
				<g>
					<path fill="#3A3847" d="M92.024,295.996H76.026c-2.21,0-4-1.789-4-4c0-2.21,1.789-3.999,4-3.999h15.998
						c2.211,0,4,1.789,4,3.999C96.023,294.207,94.235,295.996,92.024,295.996z"/>
				</g>
			</g>
			<g>
				<g>
					<path fill="#3A3847" d="M124.019,295.996h-15.998c-2.21,0-4-1.789-4-4c0-2.21,1.789-3.999,4-3.999h15.998
						c2.211,0,4,1.789,4,3.999C128.019,294.207,126.23,295.996,124.019,295.996z"/>
				</g>
			</g>
			<g>
				<g>
					<path fill="#3A3847" d="M156.015,295.996h-15.998c-2.211,0-4-1.789-4-4c0-2.21,1.789-3.999,4-3.999h15.998
						c2.21,0,4,1.789,4,3.999C160.014,294.207,158.225,295.996,156.015,295.996z"/>
				</g>
			</g>
			<g>
				<g>
					<path fill="#3A3847" d="M188.01,295.996h-15.998c-2.21,0-3.999-1.789-3.999-4c0-2.21,1.789-3.999,3.999-3.999h15.998
						c2.211,0,4,1.789,4,3.999C192.01,294.207,190.221,295.996,188.01,295.996z"/>
				</g>
			</g>
			<g>
				<g>
					<path fill="#3A3847" d="M220.006,295.996h-15.998c-2.211,0-4-1.789-4-4c0-2.21,1.789-3.999,4-3.999h15.998
						c2.21,0,3.998,1.789,3.998,3.999C224.004,294.207,222.216,295.996,220.006,295.996z"/>
				</g>
			</g>
			<g>
				<g>
					<path fill="#3A3847" d="M60.029,327.991H44.031c-2.21,0-3.999-1.788-3.999-3.999s1.789-4,3.999-4h15.998
						c2.21,0,3.999,1.789,3.999,4S62.239,327.991,60.029,327.991z"/>
				</g>
			</g>
			<g>
				<g>
					<path fill="#3A3847" d="M92.024,327.991H76.026c-2.21,0-4-1.788-4-3.999s1.789-4,4-4h15.998c2.211,0,4,1.789,4,4
						S94.235,327.991,92.024,327.991z"/>
				</g>
			</g>
			<g>
				<g>
					<path fill="#3A3847" d="M124.019,327.991h-15.998c-2.21,0-4-1.788-4-3.999s1.789-4,4-4h15.998c2.211,0,4,1.789,4,4
						S126.23,327.991,124.019,327.991z"/>
				</g>
			</g>
			<g>
				<g>
					<path fill="#3A3847" d="M156.015,327.991h-15.998c-2.211,0-4-1.788-4-3.999s1.789-4,4-4h15.998c2.21,0,4,1.789,4,4
						S158.225,327.991,156.015,327.991z"/>
				</g>
			</g>
			<g>
				<g>
					<path fill="#3A3847" d="M188.01,327.991h-15.998c-2.21,0-3.999-1.788-3.999-3.999s1.789-4,3.999-4h15.998c2.211,0,4,1.789,4,4
						S190.221,327.991,188.01,327.991z"/>
				</g>
			</g>
			<g>
				<g>
					<path fill="#3A3847" d="M220.006,327.991h-15.998c-2.211,0-4-1.788-4-3.999s1.789-4,4-4h15.998c2.21,0,3.998,1.789,3.998,4
						S222.216,327.991,220.006,327.991z"/>
				</g>
			</g>
			<g>
				<g>
					<path fill="#3A3847" d="M60.029,359.986H44.031c-2.21,0-3.999-1.788-3.999-3.999s1.789-3.999,3.999-3.999h15.998
						c2.21,0,3.999,1.788,3.999,3.999S62.239,359.986,60.029,359.986z"/>
				</g>
			</g>
			<g>
				<g>
					<path fill="#3A3847" d="M92.024,359.986H76.026c-2.21,0-4-1.788-4-3.999s1.789-3.999,4-3.999h15.998c2.211,0,4,1.788,4,3.999
						S94.235,359.986,92.024,359.986z"/>
				</g>
			</g>
			<g>
				<g>
					<path fill="#3A3847" d="M124.019,359.986h-15.998c-2.21,0-4-1.788-4-3.999s1.789-3.999,4-3.999h15.998c2.211,0,4,1.788,4,3.999
						S126.23,359.986,124.019,359.986z"/>
				</g>
			</g>
			<g>
				<g>
					<path fill="#3A3847" d="M156.015,359.986h-15.998c-2.211,0-4-1.788-4-3.999s1.789-3.999,4-3.999h15.998c2.21,0,4,1.788,4,3.999
						S158.225,359.986,156.015,359.986z"/>
				</g>
			</g>
			<g>
				<g>
					<path fill="#3A3847" d="M188.01,359.986h-15.998c-2.21,0-3.999-1.788-3.999-3.999s1.789-3.999,3.999-3.999h15.998
						c2.211,0,4,1.788,4,3.999S190.221,359.986,188.01,359.986z"/>
				</g>
			</g>
			<g>
				<g>
					<path fill="#3A3847" d="M220.006,359.986h-15.998c-2.211,0-4-1.788-4-3.999s1.789-3.999,4-3.999h15.998
						c2.21,0,3.998,1.788,3.998,3.999S222.216,359.986,220.006,359.986z"/>
				</g>
			</g>
			<g>
				<g>
					<path fill="#3A3847" d="M60.029,391.982H44.031c-2.21,0-3.999-1.789-3.999-4s1.789-3.999,3.999-3.999h15.998
						c2.21,0,3.999,1.788,3.999,3.999S62.239,391.982,60.029,391.982z"/>
				</g>
			</g>
			<g>
				<g>
					<path fill="#3A3847" d="M92.024,391.982H76.026c-2.21,0-4-1.789-4-4s1.789-3.999,4-3.999h15.998c2.211,0,4,1.788,4,3.999
						S94.235,391.982,92.024,391.982z"/>
				</g>
			</g>
			<g>
				<g>
					<path fill="#3A3847" d="M124.019,391.982h-15.998c-2.21,0-4-1.789-4-4s1.789-3.999,4-3.999h15.998c2.211,0,4,1.788,4,3.999
						S126.23,391.982,124.019,391.982z"/>
				</g>
			</g>
			<g>
				<g>
					<path fill="#3A3847" d="M156.015,391.982h-15.998c-2.211,0-4-1.789-4-4s1.789-3.999,4-3.999h15.998c2.21,0,4,1.788,4,3.999
						S158.225,391.982,156.015,391.982z"/>
				</g>
			</g>
			<g>
				<g>
					<path fill="#3A3847" d="M188.01,391.982h-15.998c-2.21,0-3.999-1.789-3.999-4s1.789-3.999,3.999-3.999h15.998
						c2.211,0,4,1.788,4,3.999S190.221,391.982,188.01,391.982z"/>
				</g>
			</g>
			<g>
				<g>
					<path fill="#3A3847" d="M220.006,391.982h-15.998c-2.211,0-4-1.789-4-4s1.789-3.999,4-3.999h15.998
						c2.21,0,3.998,1.788,3.998,3.999S222.216,391.982,220.006,391.982z"/>
				</g>
			</g>
			<g>
				<g>
					<path fill="#3A3847" d="M283.996,295.996h-15.998c-2.211,0-4-1.789-4-4c0-2.21,1.789-3.999,4-3.999h15.998
						c2.211,0,4,1.789,4,3.999C287.996,294.207,286.207,295.996,283.996,295.996z"/>
				</g>
			</g>
			<g>
				<g>
					<path fill="#3A3847" d="M283.996,327.991h-15.998c-2.211,0-4-1.788-4-3.999s1.789-4,4-4h15.998c2.211,0,4,1.789,4,4
						S286.207,327.991,283.996,327.991z"/>
				</g>
			</g>
			<g>
				<g>
					<path fill="#3A3847" d="M283.996,359.986h-15.998c-2.211,0-4-1.788-4-3.999s1.789-3.999,4-3.999h15.998
						c2.211,0,4,1.788,4,3.999S286.207,359.986,283.996,359.986z"/>
				</g>
			</g>
			<g>
				<g>
					<path fill="#3A3847" d="M283.996,391.982h-15.998c-2.211,0-4-1.789-4-4s1.789-3.999,4-3.999h15.998c2.211,0,4,1.788,4,3.999
						S286.207,391.982,283.996,391.982z"/>
				</g>
			</g>
			<g>
				<g>
					<path fill="#3A3847" d="M363.984,200.014h-15.998c-2.211,0-4-1.788-4-3.999s1.789-4,4-4h15.998c2.211,0,4,1.789,4,4
						S366.195,200.014,363.984,200.014z"/>
				</g>
			</g>
			<g>
				<g>
					<path fill="#3A3847" d="M363.984,232.009h-15.998c-2.211,0-4-1.789-4-4c0-2.21,1.789-3.999,4-3.999h15.998
						c2.211,0,4,1.789,4,3.999C367.984,230.221,366.195,232.009,363.984,232.009z"/>
				</g>
			</g>
			<g>
				<g>
					<path fill="#3A3847" d="M363.984,264.001h-15.998c-2.211,0-4-1.785-4-3.995c0-2.211,1.789-4,4-4h15.998c2.211,0,4,1.789,4,4
						C367.984,262.216,366.195,264.001,363.984,264.001z"/>
				</g>
			</g>
			<g>
				<g>
					<path fill="#3A3847" d="M363.984,295.996h-15.998c-2.211,0-4-1.789-4-4c0-2.21,1.789-3.999,4-3.999h15.998
						c2.211,0,4,1.789,4,3.999C367.984,294.207,366.195,295.996,363.984,295.996z"/>
				</g>
			</g>
			<g>
				<g>
					<path fill="#3A3847" d="M363.984,327.991h-15.998c-2.211,0-4-1.788-4-3.999s1.789-4,4-4h15.998c2.211,0,4,1.789,4,4
						S366.195,327.991,363.984,327.991z"/>
				</g>
			</g>
			<g>
				<g>
					<path fill="#3A3847" d="M363.984,359.986h-15.998c-2.211,0-4-1.788-4-3.999s1.789-3.999,4-3.999h15.998
						c2.211,0,4,1.788,4,3.999S366.195,359.986,363.984,359.986z"/>
				</g>
			</g>
			<g>
				<g>
					<path fill="#3A3847" d="M363.984,391.982h-15.998c-2.211,0-4-1.789-4-4s1.789-3.999,4-3.999h15.998c2.211,0,4,1.788,4,3.999
						S366.195,391.982,363.984,391.982z"/>
				</g>
			</g>
			<g>
				<g>
					<path fill="#3A3847" d="M36.032,391.982c-2.21,0-4-1.789-4-4v-95.986c0-2.21,1.789-3.999,4-3.999s4,1.789,4,3.999v95.986
						C40.032,390.193,38.243,391.982,36.032,391.982z"/>
				</g>
			</g>
			<g>
				<g>
					<path fill="#3A3847" d="M68.027,391.982c-2.21,0-4-1.789-4-4v-95.986c0-2.21,1.789-3.999,4-3.999s4,1.789,4,3.999v95.986
						C72.027,390.193,70.238,391.982,68.027,391.982z"/>
				</g>
			</g>
			<g>
				<g>
					<path fill="#3A3847" d="M100.023,391.982c-2.211,0-4-1.789-4-4v-95.986c0-2.21,1.789-3.999,4-3.999
						c2.21,0,3.999,1.789,3.999,3.999v95.986C104.022,390.193,102.233,391.982,100.023,391.982z"/>
				</g>
			</g>
			<g>
				<g>
					<path fill="#3A3847" d="M132.018,391.982c-2.211,0-4-1.789-4-4v-95.986c0-2.21,1.789-3.999,4-3.999s4,1.789,4,3.999v95.986
						C136.018,390.193,134.229,391.982,132.018,391.982z"/>
				</g>
			</g>
			<g>
				<g>
					<path fill="#3A3847" d="M164.013,391.982c-2.21,0-3.999-1.789-3.999-4v-95.986c0-2.21,1.789-3.999,3.999-3.999
						c2.211,0,4,1.789,4,3.999v95.986C168.013,390.193,166.224,391.982,164.013,391.982z"/>
				</g>
			</g>
			<g>
				<g>
					<path fill="#3A3847" d="M196.009,391.982c-2.21,0-3.999-1.789-3.999-4v-95.986c0-2.21,1.789-3.999,3.999-3.999
						s3.999,1.789,3.999,3.999v95.986C200.008,390.193,198.219,391.982,196.009,391.982z"/>
				</g>
			</g>
			<g>
				<g>
					<path fill="#3A3847" d="M228.004,391.982c-2.211,0-4-1.789-4-4v-95.986c0-2.21,1.789-3.999,4-3.999s4,1.789,4,3.999v95.986
						C232.004,390.193,230.215,391.982,228.004,391.982z"/>
				</g>
			</g>
			<g>
				<g>
					<path fill="#3A3847" d="M459.971,297.66c-2.211,0-4-1.789-4-4v-7.998c0-2.211,1.789-4,4-4s3.998,1.789,3.998,4v7.998
						C463.969,295.871,462.182,297.66,459.971,297.66z"/>
				</g>
			</g>
			<g>
				<g>
					<path fill="#3A3847" d="M491.965,289.661h-31.994c-2.211,0-4-1.789-4-3.999c0-2.211,1.789-4,4-4h31.994c2.211,0,4,1.789,4,4
						C495.965,287.872,494.176,289.661,491.965,289.661z"/>
				</g>
			</g>
			<g>
				<g>
					<path fill="#3A3847" d="M491.965,297.66c-2.211,0-3.998-1.789-3.998-4v-7.998c0-2.211,1.787-4,3.998-4s4,1.789,4,4v7.998
						C495.965,295.871,494.176,297.66,491.965,297.66z"/>
				</g>
			</g>
			<g>
				<g>
					<path fill="#3A3847" d="M475.967,289.661c-2.209,0-3.998-1.789-3.998-3.999v-7.999c0-2.211,1.789-4,3.998-4
						c2.211,0,4,1.789,4,4v7.999C479.967,287.872,478.178,289.661,475.967,289.661z"/>
				</g>
			</g>
			<g>
				<g>
					<path fill="#3A3847" d="M84.029,208.013c-0.094,0-0.191-0.004-0.289-0.012c-2.203-0.156-3.862-2.07-3.702-4.272l7.999-111.984
						c0.156-2.199,1.957-3.902,4.273-3.703c2.203,0.156,3.863,2.07,3.703,4.273l-7.999,111.984
						C87.865,206.404,86.107,208.013,84.029,208.013z"/>
				</g>
			</g>
			<g>
				<g>
					<path fill="#3A3847" d="M132.014,208.013c-2.078,0-3.835-1.609-3.984-3.714l-7.999-111.984c-0.16-2.203,1.5-4.117,3.702-4.273
						c2.246-0.223,4.117,1.504,4.273,3.703l7.999,111.984c0.16,2.203-1.5,4.116-3.703,4.272
						C132.206,208.009,132.108,208.013,132.014,208.013z"/>
				</g>
			</g>
			<g>
				<g>
					<path fill="#3A3847" d="M124.019,96.029H92.024c-2.211,0-4-1.789-4-4s1.789-4,4-4h31.995c2.211,0,4,1.789,4,4
						S126.23,96.029,124.019,96.029z"/>
				</g>
			</g>
			<g>
				<g>
					<path fill="#3A3847" d="M122.875,192.015H93.168c-2.211,0-4-1.789-4-4c0-2.21,1.789-3.999,4-3.999h29.707
						c2.21,0,4,1.789,4,3.999C126.875,190.227,125.085,192.015,122.875,192.015z"/>
				</g>
			</g>
			<g>
				<g>
					<path fill="#3A3847" d="M121.734,176.018H94.309c-2.211,0-4-1.789-4-4s1.789-4,4-4h27.425c2.21,0,4,1.789,4,4
						S123.945,176.018,121.734,176.018z"/>
				</g>
			</g>
			<g>
				<g>
					<path fill="#3A3847" d="M119.45,144.022H96.593c-2.21,0-3.999-1.789-3.999-4c0-2.21,1.789-3.999,3.999-3.999h22.856
						c2.21,0,3.999,1.789,3.999,3.999C123.449,142.233,121.66,144.022,119.45,144.022z"/>
				</g>
			</g>
			<g>
				<g>
					<path fill="#3A3847" d="M118.305,128.024H97.738c-2.21,0-3.999-1.789-3.999-3.999c0-2.211,1.789-4,3.999-4h20.567
						c2.211,0,4,1.789,4,4C122.305,126.236,120.516,128.024,118.305,128.024z"/>
				</g>
			</g>
			<g>
				<g>
					<path fill="#3A3847" d="M164.017,208.013c-0.094,0-0.191-0.004-0.289-0.012c-2.203-0.156-3.862-2.07-3.702-4.272l7.999-111.984
						c0.156-2.199,2.042-3.902,4.272-3.703c2.203,0.156,3.863,2.07,3.703,4.273l-7.999,111.984
						C167.853,206.404,166.095,208.013,164.017,208.013z"/>
				</g>
			</g>
			<g>
				<g>
					<path fill="#3A3847" d="M212.002,208.013c-2.077,0-3.834-1.609-3.982-3.714l-8-111.984c-0.16-2.203,1.5-4.117,3.703-4.273
						c2.242-0.223,4.117,1.504,4.273,3.703l7.998,111.984c0.16,2.203-1.5,4.116-3.703,4.272
						C212.193,208.009,212.096,208.013,212.002,208.013z"/>
				</g>
			</g>
			<g>
				<g>
					<path fill="#3A3847" d="M204.008,96.029h-31.996c-2.21,0-3.999-1.789-3.999-4s1.789-4,3.999-4h31.996c2.211,0,4,1.789,4,4
						S206.219,96.029,204.008,96.029z"/>
				</g>
			</g>
			<g>
				<g>
					<path fill="#3A3847" d="M202.863,192.015h-29.707c-2.211,0-3.999-1.789-3.999-4c0-2.21,1.788-3.999,3.999-3.999h29.707
						c2.211,0,4,1.789,4,3.999C206.863,190.227,205.074,192.015,202.863,192.015z"/>
				</g>
			</g>
			<g>
				<g>
					<path fill="#3A3847" d="M201.723,176.018h-27.426c-2.211,0-4-1.789-4-4s1.789-4,4-4h27.426c2.211,0,4,1.789,4,4
						S203.934,176.018,201.723,176.018z"/>
				</g>
			</g>
			<g>
				<g>
					<path fill="#3A3847" d="M199.438,144.022h-22.855c-2.211,0-4-1.789-4-4c0-2.21,1.789-3.999,4-3.999h22.855
						c2.211,0,4,1.789,4,3.999C203.438,142.233,201.648,144.022,199.438,144.022z"/>
				</g>
			</g>
			<g>
				<g>
					<path fill="#3A3847" d="M198.293,128.024h-20.566c-2.211,0-4-1.789-4-3.999c0-2.211,1.789-4,4-4h20.566c2.211,0,4,1.789,4,4
						C202.293,126.236,200.504,128.024,198.293,128.024z"/>
				</g>
			</g>
			<g>
				<g>
					<path fill="#3A3847" d="M403.979,279.998h-23.996c-2.211,0-4-1.788-4-3.999s1.789-3.999,4-3.999h23.996
						c2.211,0,4,1.788,4,3.999S406.189,279.998,403.979,279.998z"/>
				</g>
			</g>
			<g>
				<g>
					<path fill="#3A3847" d="M419.977,295.996c-2.211,0-4-1.789-4-4c0-6.615-5.383-11.998-11.998-11.998c-2.211,0-4-1.788-4-3.999
						s1.789-3.999,4-3.999c11.029,0,19.996,8.967,19.996,19.996C423.975,294.207,422.188,295.996,419.977,295.996z"/>
				</g>
			</g>
			<g>
				<g>
					<path fill="#3A3847" d="M435.973,295.996c-2.209,0-3.998-1.789-3.998-4c0-15.435-12.561-27.995-27.996-27.995
						c-2.211,0-4-1.785-4-3.995c0-2.211,1.789-4,4-4c19.848,0,35.994,16.143,35.994,35.99
						C439.973,294.207,438.184,295.996,435.973,295.996z"/>
				</g>
			</g>
			<g>
				<g>
					<path fill="#3A3847" d="M403.979,264.001h-23.996c-2.211,0-4-1.785-4-3.995c0-2.211,1.789-4,4-4h23.996c2.211,0,4,1.789,4,4
						C407.979,262.216,406.189,264.001,403.979,264.001z"/>
				</g>
			</g>
			<g>
				<g>
					<path fill="#3A3847" d="M403.979,423.978c-2.211,0-4-1.789-4-3.999v-47.993c0-2.211,1.789-4,4-4s4,1.789,4,4v47.993
						C407.979,422.188,406.189,423.978,403.979,423.978z"/>
				</g>
			</g>
			<g>
				<g>
					<path fill="#3A3847" d="M475.967,375.984h-71.988c-2.211,0-4-1.789-4-3.999c0-2.211,1.789-4,4-4h71.988c2.211,0,4,1.789,4,4
						C479.967,374.195,478.178,375.984,475.967,375.984z"/>
				</g>
			</g>
			<g>
				<g>
					<path fill="#3A3847" d="M475.967,423.978c-2.209,0-3.998-1.789-3.998-3.999v-47.993c0-2.211,1.789-4,3.998-4
						c2.211,0,4,1.789,4,4v47.993C479.967,422.188,478.178,423.978,475.967,423.978z"/>
				</g>
			</g>
			<g>
				<g>
					<path fill="#3A3847" d="M459.971,391.982h-39.994c-2.211,0-4-1.789-4-4s1.789-3.999,4-3.999h39.994
						c2.211,0,3.998,1.788,3.998,3.999S462.182,391.982,459.971,391.982z"/>
				</g>
			</g>
			<g>
				<g>
					<path fill="#3A3847" d="M459.971,407.979h-39.994c-2.211,0-4-1.788-4-3.999s1.789-4,4-4h39.994c2.211,0,3.998,1.789,3.998,4
						S462.182,407.979,459.971,407.979z"/>
				</g>
			</g>
			<g>
				<g>
					<path fill="#3A3847" d="M451.971,343.989h-23.996c-6.615,0-11.998-5.382-11.998-11.999c0-6.615,5.383-11.998,11.998-11.998
						h23.996c6.617,0,11.998,5.383,11.998,11.998C463.969,338.607,458.588,343.989,451.971,343.989z M427.975,327.991
						c-2.203,0-4,1.797-4,3.999c0,2.203,1.797,4,4,4h23.996c2.203,0,4-1.797,4-4c0-2.202-1.797-3.999-4-3.999H427.975z"/>
				</g>
			</g>
			<g>
				<g>
					<path fill="#3A3847" d="M439.973,343.989c-2.211,0-4-1.789-4-3.999v-15.998c0-2.211,1.789-4,4-4s4,1.789,4,4v15.998
						C443.973,342.2,442.184,343.989,439.973,343.989z"/>
				</g>
			</g>
			<g>
				<g>
					<path fill="#3A3847" d="M4.037,423.978c-2.21,0-3.999-1.789-3.999-3.999V403.98c0-2.211,1.789-4,3.999-4c2.211,0,4,1.789,4,4
						v15.998C8.036,422.188,6.248,423.978,4.037,423.978z"/>
				</g>
			</g>
			<g>
				<g>
					<path fill="#3A3847" d="M252,423.978H4.037c-2.21,0-3.999-1.789-3.999-3.999c0-2.211,1.789-4,3.999-4H252c2.211,0,4,1.789,4,4
						C256,422.188,254.211,423.978,252,423.978z"/>
				</g>
			</g>
			<g>
				<g>
					<path fill="#3A3847" d="M507.963,423.978c-2.211,0-4-1.789-4-3.999V403.98c0-2.211,1.789-4,4-4s4,1.789,4,4v15.998
						C511.963,422.188,510.174,423.978,507.963,423.978z"/>
				</g>
			</g>
			<g>
				<g>
					<path fill="#3A3847" d="M252,232.009H60.029c-2.211,0-4-1.789-4-4c0-2.21,1.789-3.999,4-3.999H252c2.211,0,4,1.789,4,3.999
						C256,230.221,254.211,232.009,252,232.009z"/>
				</g>
			</g>
			<g>
				<g>
					<path fill="#3A3847" d="M252,248.007H44.031c-2.21,0-3.999-1.789-3.999-3.999c0-2.211,1.789-3.999,3.999-3.999H252
						c2.211,0,4,1.788,4,3.999C256,246.218,254.211,248.007,252,248.007z"/>
				</g>
			</g>
		</g>
		<g>
			<g>
				<path fill="#3A3847" d="M371.982,423.978H260c-2.211,0-4-1.789-4-3.999c0-2.211,1.789-4,4-4h111.982c2.211,0,4,1.789,4,4
					C375.982,422.188,374.193,423.978,371.982,423.978z"/>
			</g>
		</g>
		<g>
			<g>
				<path fill="#3A3847" d="M507.963,423.978h-127.98c-2.211,0-4-1.789-4-3.999c0-2.211,1.789-4,4-4h127.98c2.211,0,4,1.789,4,4
					C511.963,422.188,510.174,423.978,507.963,423.978z"/>
			</g>
		</g>
	</g>
	<g opacity="0.2">
		<g>
			<rect x="459.971" y="285.662" fill="#FFFFFF" width="7.998" height="7.998"/>
		</g>
	</g>
	<g opacity="0.2">
		<g>
			<rect x="483.967" y="285.662" width="7.998" height="7.998"/>
		</g>
	</g>
</g>
</svg>
