<svg id="icons" xmlns="http://www.w3.org/2000/svg" viewBox="0 0 340 340"><rect x="31.222" y="26.156" width="158.125" height="287.687" style="fill:#b6dffc"/><rect x="189.347" y="110.138" width="119.431" height="203.705" transform="translate(498.125 423.982) rotate(180)" style="fill:#7babdb"/><rect x="207.999" y="199.495" width="82.127" height="24.992" transform="translate(498.125 423.982) rotate(180)" style="fill:#537bb7"/><rect x="207.999" y="246.495" width="82.127" height="24.992" transform="translate(498.125 517.982) rotate(180)" style="fill:#537bb7"/><rect x="207.999" y="152.495" width="82.127" height="24.992" transform="translate(498.125 329.982) rotate(180)" style="fill:#537bb7"/><rect x="64.961" y="262.273" width="90.646" height="51.57" style="fill:#7babdb"/><rect x="89.188" y="262.273" width="42.193" height="51.57" style="fill:#537bb7"/><rect x="98.716" y="216.447" width="23.137" height="25.481" style="fill:#7babdb"/><rect x="54.471" y="216.447" width="23.137" height="25.481" style="fill:#7babdb"/><rect x="143.263" y="216.447" width="23.137" height="25.481" style="fill:#7babdb"/><rect x="98.716" y="169.858" width="23.137" height="25.481" style="fill:#7babdb"/><rect x="54.471" y="169.858" width="23.137" height="25.481" style="fill:#7babdb"/><rect x="143.263" y="169.858" width="23.137" height="25.481" style="fill:#7babdb"/><rect x="98.716" y="123.411" width="23.137" height="25.481" style="fill:#7babdb"/><rect x="54.471" y="123.411" width="23.137" height="25.481" style="fill:#7babdb"/><rect x="143.263" y="123.411" width="23.137" height="25.481" style="fill:#7babdb"/><path d="M110.284,47.415c-7.272,6.905-24.042,3.77-24.042,3.77V75.65A23,23,0,0,0,87.8,84.119c6.041,15.266,22.486,18.326,22.486,18.326s16.446-3.06,22.487-18.326a23.02,23.02,0,0,0,1.556-8.469V51.185S117.557,54.32,110.284,47.415Z" style="fill:#ffdc6c"/><path d="M110.284,47.415a13.362,13.362,0,0,1-4.01,2.554L86.242,70V75.65a23.618,23.618,0,0,0,.882,6.476L118.1,51.153A16.238,16.238,0,0,1,110.284,47.415Z" style="fill:#ffedd2"/><path d="M89.935,88.4a27.721,27.721,0,0,0,2.955,3.982L132.011,53.4v-1.88c-1.295.153-3.043.311-5.019.36Z" style="fill:#ffedd2"/><path d="M132.771,84.119a23.02,23.02,0,0,0,1.556-8.469V51.185s-16.77,3.135-24.043-3.77v55.03S126.73,99.385,132.771,84.119Z" style="fill:#fca742"/><path d="M86.242,64.3,98.83,51.71c-.993.1-1.977.149-2.933.172l-9.655,9.655Z" style="fill:#ffedd2"/><path d="M204,224.487a4,4,0,0,0,4,4h82.127a4,4,0,0,0,4-4V199.5a4,4,0,0,0-4-4H208a4,4,0,0,0-4,4Zm8-20.992h74.127v16.992H212Z" style="fill:#494456"/><path d="M204,271.487a4,4,0,0,0,4,4h82.127a4,4,0,0,0,4-4V246.5a4,4,0,0,0-4-4H208a4,4,0,0,0-4,4Zm8-20.992h74.127v16.992H212Z" style="fill:#494456"/><path d="M208,181.487h82.127a4,4,0,0,0,4-4V152.5a4,4,0,0,0-4-4H208a4,4,0,0,0-4,4v24.992A4,4,0,0,0,208,181.487Zm4-24.992h74.127v16.992H212Z" style="fill:#494456"/><path d="M89.188,317.843H189.347a4,4,0,0,0,4-4V128.792a4,4,0,0,0-8,0V309.843h-25.74v-47.57a4,4,0,0,0-4-4H64.961a4,4,0,0,0-4,4v47.57H35.222V30.157H185.347v79.981a4,4,0,0,0,4,4H304.778V309.843H212.335a4,4,0,1,0,0,8h96.443a4,4,0,0,0,4-4v-203.7a4,4,0,0,0-4-4H193.347V26.157a4,4,0,0,0-4-4H31.222a4,4,0,0,0-4,4V313.843a4,4,0,0,0,4,4H89.188Zm62.419-8H135.381v-43.57h16.226Zm-24.226-43.57v43.57H93.188v-43.57Zm-58.42,0H85.188v43.57H68.961Z" style="fill:#494456"/><path d="M121.853,212.447H98.716a4,4,0,0,0-4,4v25.481a4,4,0,0,0,4,4h23.137a4,4,0,0,0,4-4V216.447A4,4,0,0,0,121.853,212.447Zm-4,25.481H102.716V220.447h15.137Z" style="fill:#494456"/><path d="M77.608,212.447H54.472a4,4,0,0,0-4,4v25.481a4,4,0,0,0,4,4H77.608a4,4,0,0,0,4-4V216.447A4,4,0,0,0,77.608,212.447Zm-4,25.481H58.472V220.447H73.608Z" style="fill:#494456"/><path d="M166.4,212.447H143.263a4,4,0,0,0-4,4v25.481a4,4,0,0,0,4,4H166.4a4,4,0,0,0,4-4V216.447A4,4,0,0,0,166.4,212.447Zm-4,25.481H147.263V220.447H162.4Z" style="fill:#494456"/><path d="M125.853,169.858a4,4,0,0,0-4-4H98.716a4,4,0,0,0-4,4v25.481a4,4,0,0,0,4,4h23.137a4,4,0,0,0,4-4Zm-8,21.481H102.716V173.858h15.137Z" style="fill:#494456"/><path d="M81.608,169.858a4,4,0,0,0-4-4H54.472a4,4,0,0,0-4,4v25.481a4,4,0,0,0,4,4H77.608a4,4,0,0,0,4-4Zm-8,21.481H58.472V173.858H73.608Z" style="fill:#494456"/><path d="M170.4,169.858a4,4,0,0,0-4-4H143.263a4,4,0,0,0-4,4v25.481a4,4,0,0,0,4,4H166.4a4,4,0,0,0,4-4Zm-8,21.481H147.263V173.858H162.4Z" style="fill:#494456"/><path d="M125.853,123.411a4,4,0,0,0-4-4H98.716a4,4,0,0,0-4,4v25.481a4,4,0,0,0,4,4h23.137a4,4,0,0,0,4-4Zm-8,21.481H102.716V127.411h15.137Z" style="fill:#494456"/><path d="M81.608,123.411a4,4,0,0,0-4-4H54.472a4,4,0,0,0-4,4v25.481a4,4,0,0,0,4,4H77.608a4,4,0,0,0,4-4Zm-8,21.481H58.472V127.411H73.608Z" style="fill:#494456"/><path d="M170.4,123.411a4,4,0,0,0-4-4H143.263a4,4,0,0,0-4,4v25.481a4,4,0,0,0,4,4H166.4a4,4,0,0,0,4-4Zm-8,21.481H147.263V127.411H162.4Z" style="fill:#494456"/><path d="M136.49,85.59a26.891,26.891,0,0,0,1.837-9.939V51.185a4,4,0,0,0-4.735-3.932c-3.828.715-15.826,1.751-20.554-2.739-.075-.071-.161-.121-.24-.186a3.887,3.887,0,0,0-.317-.245,3.964,3.964,0,0,0-.353-.2c-.112-.058-.222-.119-.338-.166a3.8,3.8,0,0,0-.387-.126c-.117-.034-.232-.071-.351-.094a3.808,3.808,0,0,0-.4-.049c-.123-.011-.245-.025-.368-.025a3.829,3.829,0,0,0-.386.026,3.735,3.735,0,0,0-.379.047c-.125.024-.246.062-.368.1a3.84,3.84,0,0,0-.372.121c-.12.049-.234.112-.35.172a3.829,3.829,0,0,0-.342.192,4.012,4.012,0,0,0-.322.249c-.078.064-.164.114-.238.184-4.7,4.465-16.721,3.447-20.553,2.739a4,4,0,0,0-4.736,3.932V75.651a26.891,26.891,0,0,0,1.837,9.939c6.777,17.126,24.714,20.646,25.475,20.787h.007a3.991,3.991,0,0,0,.719.068h.009a3.88,3.88,0,0,0,.717-.068h.011C111.776,106.236,129.713,102.716,136.49,85.59ZM110.285,98.344c-3.026-.762-14.259-4.3-18.767-15.7a18.928,18.928,0,0,1-1.277-7V55.729c5.323.447,13.875.4,20.043-3.338,6.168,3.734,14.719,3.784,20.043,3.338V75.651a18.948,18.948,0,0,1-1.276,7C124.542,94.042,113.31,97.582,110.285,98.344Z" style="fill:#494456"/></svg>