<?xml version="1.0" encoding="iso-8859-1"?>
<!-- Uploaded to: SVG Repo, www.svgrepo.com, Generator: SVG Repo Mixer Tools -->
<svg version="1.1" id="Layer_1" xmlns="http://www.w3.org/2000/svg" xmlns:xlink="http://www.w3.org/1999/xlink" 
	 viewBox="0 0 512.001 512.001" xml:space="preserve">
<rect x="127.783" y="136.248" style="fill:#FDDD85;" width="256.526" height="239.424"/>
<rect x="127.783" y="136.248" style="fill:#FDD042;" width="25.653" height="239.424"/>
<polygon style="fill:#F2C127;" points="281.696,204.653 256.043,187.551 230.39,204.653 230.39,136.246 281.696,136.246 "/>
<rect x="187.639" y="230.308" style="fill:#EBEBEC;" width="136.814" height="34.203"/>
<g>
	<polygon style="fill:#74DBC9;" points="504.018,255.958 469.815,204.653 469.815,230.305 418.509,230.305 418.509,281.611 
		469.815,281.611 469.815,307.263 	"/>
	<polygon style="fill:#74DBC9;" points="8.068,255.958 42.271,204.653 42.271,230.305 93.577,230.305 93.577,281.611 
		42.271,281.611 42.271,307.263 	"/>
	<polygon style="fill:#74DBC9;" points="256.043,503.933 204.738,469.73 230.39,469.73 230.39,418.424 281.696,418.424 
		281.696,469.73 307.348,469.73 	"/>
	<polygon style="fill:#74DBC9;" points="256.043,7.983 204.738,42.186 230.39,42.186 230.39,93.492 281.696,93.492 281.696,42.186 
		307.348,42.186 	"/>
</g>
<path d="M384.306,128.764H196.187c-4.427,0-8.016,3.588-8.016,8.016c0,4.428,3.589,8.016,8.016,8.016h25.653v59.856
	c0,6.274,7.498,10.158,12.73,6.67l21.34-14.138l21.005,14.138c5.237,3.493,12.263-0.403,12.263-6.67v-59.856h86.577v223.391H135.262
	V144.797h26.721c4.427,0,8.016-3.588,8.016-8.016c0-4.428-3.589-8.016-8.016-8.016H127.78c-4.427,0-8.551,3.054-8.551,7.482V375.67
	c0,4.428,4.124,8.551,8.551,8.551h256.526c4.427,0,7.482-4.123,7.482-8.551V136.246
	C391.788,131.818,388.733,128.764,384.306,128.764z M273.145,189.674l-12.922-8.794c-2.664-1.775-6.363-1.776-9.027,0l-13.323,8.794
	v-44.877h35.272V189.674z"/>
<path d="M331.932,230.84c0-4.427-3.589-8.016-8.016-8.016H187.102c-4.427,0-8.016,3.589-8.016,8.016v34.203
	c0,4.427,3.589,8.016,8.016,8.016h136.814c4.427,0,8.016-3.589,8.016-8.016V230.84z M195.118,238.856h120.781v18.171H195.118
	V238.856z"/>
<path d="M323.915,153.882c-4.427,0-8.016,3.588-8.016,8.016V179c0,4.428,3.589,8.016,8.016,8.016s8.016-3.588,8.016-8.016v-17.102
	C331.932,157.47,328.343,153.882,323.915,153.882z"/>
<path d="M357.584,179v-17.102c0-4.428-3.589-8.016-8.016-8.016s-8.016,3.588-8.016,8.016V179c0,4.428,3.589,8.016,8.016,8.016
	S357.584,183.429,357.584,179z"/>
<path d="M187.102,187.017c4.427,0,8.016-3.588,8.016-8.016v-17.102c0-4.428-3.589-8.016-8.016-8.016
	c-4.427,0-8.016,3.588-8.016,8.016V179C179.085,183.429,182.674,187.017,187.102,187.017z"/>
<path d="M169.466,179v-17.102c0-4.428-3.589-8.016-8.016-8.016c-4.427,0-8.016,3.588-8.016,8.016V179
	c0,4.428,3.589,8.016,8.016,8.016C165.876,187.017,169.466,183.429,169.466,179z"/>
<path d="M282.23,324.632c0,4.428,3.589,8.284,8.016,8.284h25.653v17.102c0,4.428,4.124,8.551,8.551,8.551h17.102
	c4.427,0,8.016-3.588,8.016-8.016s-3.589-8.016-8.016-8.016h-9.62v-9.62h26.721c4.427,0,8.016-3.855,8.016-8.284
	c0-23.28-18.94-42.22-42.22-42.22S282.23,301.352,282.23,324.632z M349.382,316.883h-49.864
	c3.394-10.689,13.288-18.171,24.932-18.171S345.988,306.194,349.382,316.883z"/>
<path d="M161.984,290.161v25.653c0,11.047,7.482,20.444,17.102,23.799v2.922h-8.551c-4.427,0-8.016,3.588-8.016,8.016
	s3.589,8.016,8.016,8.016h34.203c4.427,0,8.016-3.588,8.016-8.016s-3.589-8.016-8.016-8.016h-9.62v-2.922
	c10.689-3.354,17.102-12.751,17.102-23.799v-25.653c0-4.428-3.055-7.482-7.482-7.482h-34.203
	C166.107,282.679,161.984,285.733,161.984,290.161z M178.016,298.712h18.171v17.102c0,5.01-4.076,9.085-9.085,9.085
	s-9.085-4.076-9.085-9.085V298.712z"/>
<path d="M510.688,251.512l-34.203-51.305c-1.959-2.939-5.878-4.251-9.261-3.226c-3.381,1.023-5.961,4.14-5.961,7.672v18.171h-42.754
	c-4.427,0-8.551,3.054-8.551,7.482v51.305c0,4.428,4.124,8.551,8.551,8.551h42.754v17.102c0,3.274,2.338,6.297,5.391,7.477
	c3.465,1.338,7.635,0.06,9.696-3.03l34.271-51.305C512.416,257.712,512.483,254.204,510.688,251.512z M477.795,281.108
	c-0.387-4.067-3.812-6.98-7.98-6.98h-43.823v-35.272h43.823c4.167,0,7.593-3.448,7.98-7.514l16.59,24.883L477.795,281.108z"/>
<path d="M93.577,222.823H49.753v-18.171c0-3.533-2.046-6.649-5.427-7.672c-3.38-1.023-6.899,0.288-8.86,3.226L1.33,251.512
	c-1.796,2.694-1.761,6.2,0.033,8.893l34.221,51.305c2.06,3.09,5.838,4.368,9.303,3.03c3.055-1.18,4.865-4.203,4.865-7.477v-17.102
	h43.823c4.427,0,7.482-4.123,7.482-8.551v-51.305C101.059,225.877,98.004,222.823,93.577,222.823z M85.026,274.129H42.271
	c-4.167,0-7.593,2.914-7.98,6.98l-16.59-25.017l16.59-24.683c0.387,4.067,3.812,7.448,7.98,7.448h42.754V274.129z"/>
<path d="M307.348,462.248h-18.171v-43.823c0-4.428-3.055-7.482-7.482-7.482H230.39c-4.427,0-8.551,3.054-8.551,7.482v43.823h-17.102
	c-3.533,0-6.648,2.045-7.672,5.426c-1.024,3.382,0.286,6.901,3.226,8.86l51.305,34.137c2.664,1.775,6.229,1.742,8.893-0.033
	l51.305-34.221c2.939-1.959,4.25-5.353,3.226-8.735C313.996,464.301,310.881,462.248,307.348,462.248z M256.043,494.298
	l-25.15-16.59c4.067-0.387,6.98-3.812,6.98-7.98v-42.754h35.272v42.754c0,4.167,3.448,7.593,7.514,7.98L256.043,494.298z"/>
<path d="M204.738,50.737h17.102v42.754c0,4.428,4.124,8.551,8.551,8.551h51.305c4.427,0,7.482-4.123,7.482-8.551V50.737h18.171
	c3.533,0,6.648-2.579,7.672-5.96c1.024-3.382-0.286-7.168-3.226-9.127L260.489,1.38c-2.694-1.796-6.2-1.829-8.893-0.033
	l-51.305,34.186c-2.997,1.998-4.305,6.134-3.133,9.54C198.258,48.271,201.356,50.737,204.738,50.737z M256.043,17.618l24.616,16.59
	c-4.067,0.387-7.514,3.812-7.514,7.98v43.823h-35.272V42.188c0-4.167-2.914-7.593-6.98-7.98L256.043,17.618z"/>
</svg>